<svg width="74" height="31" viewBox="0 0 74 31" fill="none" xmlns="http://www.w3.org/2000/svg">
<g clip-path="url(#clip0)">
<path d="M65.8652 0L54.6406 15.1L65.8652 30.2H73.3483L61.8283 15.1L73.0529 0H65.8652Z" fill="#AA885F"/>
<path d="M10.8281 14.9V15.3C13.1912 15.5 15.3574 18 15.9481 20.2H16.342V10H15.9481C15.3574 12.3 13.1912 14.7 10.8281 14.9Z" fill="#AA885F"/>
<path d="M20.6752 8.5H21.069V0H0.6875C0.6875 0 1.67212 1.6 1.67212 5.8V30.2H21.1675V21.7H20.7737C20.1829 24.4 18.6075 28.5 13.1921 28.5H8.26904V1.7H13.0937C18.509 1.7 20.0844 5.8 20.6752 8.5Z" fill="#AA885F"/>
<path d="M45.3846 0V14H33.1753V0H25.5938C25.5938 0 26.5784 1.6 26.5784 5.8V30.2H33.1753V16.2H45.3846V30.2H51.9815V5.8C51.9815 1.6 52.9661 0 52.9661 0H45.3846Z" fill="#AA885F"/>
</g>
<defs>
<clipPath id="clip0">
<rect width="72.6646" height="30.2" fill="white" transform="translate(0.6875)"/>
</clipPath>
</defs>
</svg>
