<?xml version="1.0" encoding="UTF-8"?>
<svg viewBox="0 0 1170 481.63" xmlns="http://www.w3.org/2000/svg">
<defs>
<style>.cls-1{fill:#aa8960;}.cls-2{fill:#414141;}.cls-3,.cls-7{fill:#ebebeb;}.cls-4{fill:#fff;}.cls-5{fill:#004d39;}.cls-6{fill:#aa885f;}.cls-7{stroke:#aa885f;stroke-linejoin:round;stroke-width:1.76px;}.cls-8{fill:none;stroke:#a98860;stroke-miterlimit:10;stroke-width:2.35px;}.cls-9{fill:#a98860;}</style>
</defs>
<title>Asset 1</title>
<g data-name="Layer 2">
<g data-name="Layer 1">
<path class="cls-1" d="m349.91 447.13a15.81 15.81 0 0 1 2.49-8.59l1.73 0.72a16.65 16.65 0 0 0 0 15.75l-1.73 0.71a15.79 15.79 0 0 1-2.49-8.59z"/>
<path class="cls-1" d="M357.45,440.1h4.2c2.54,0,4.51.7,4.51,3a2.84,2.84,0,0,1-1.6,2.65v.07a2.78,2.78,0,0,1,2.2,2.88c0,2.5-2.11,3.61-4.76,3.61h-4.55Zm4.07,4.91c1.35,0,1.93-.56,1.93-1.45s-.62-1.31-1.92-1.31h-1.31V445Zm.26,5.21c1.5,0,2.27-.53,2.27-1.66s-.75-1.5-2.27-1.5h-1.56v3.16Z"/>
<path class="cls-1" d="M370.41,440.1h2.76v5h.08l3.64-5h3.05l-3.7,4.89,4.38,7.37h-3l-3-5.17-1.43,1.88v3.29h-2.76Z"/>
<path class="cls-1" d="M382.85,450.82l1.58-1.9a5,5,0,0,0,3,1.28c1.15,0,1.71-.45,1.71-1.19s-.69-1-1.77-1.46l-1.59-.68a3.58,3.58,0,0,1-2.47-3.35c0-2,1.81-3.64,4.37-3.64a5.66,5.66,0,0,1,3.94,1.61l-1.41,1.75a4,4,0,0,0-2.53-1c-1,0-1.56.42-1.56,1.11s.8,1,1.86,1.45l1.58.64a3.38,3.38,0,0,1,2.42,3.33c0,2-1.69,3.79-4.62,3.79A6.77,6.77,0,0,1,382.85,450.82Z"/>
<path class="cls-1" d="m394.82 450.69 5.41-8.26h-4.9v-2.33h8.31v1.68l-5.42 8.22h5.47v2.33h-8.87z"/>
<path class="cls-1" d="M406.54,455a16.58,16.58,0,0,0,0-15.75l1.73-.72a16.12,16.12,0,0,1,0,17.18Z"/>
<path class="cls-1" d="M420.43,440.06h3.93c2.54,0,4.4.78,4.4,3a2.77,2.77,0,0,1-1.71,2.67v.08a2.81,2.81,0,0,1,2.35,2.91c0,2.46-2,3.61-4.72,3.61h-4.25Zm3.75,5.08c1.71,0,2.44-.68,2.44-1.73,0-1.2-.81-1.65-2.41-1.65h-1.6v3.38Zm.28,5.53c1.8,0,2.82-.66,2.82-2s-1-1.86-2.82-1.86h-1.85v3.89Z"/>
<path class="cls-1" d="m433.16 440.06h2.19v12.3h-2.19z"/>
<path class="cls-1" d="m438.84 451 5.94-9.13h-5.39v-1.85h8.1v1.32l-6 9.14h6v1.84h-8.69z"/>
<path class="cls-1" d="M454,441.91h-3.55v-1.85h9.29v1.85h-3.56v10.45H454Z"/>
<path class="cls-1" d="m462.35 446.16c0-4 2.22-6.32 5.42-6.32s5.43 2.35 5.43 6.32-2.22 6.42-5.43 6.42-5.42-2.44-5.42-6.42zm8.59 0c0-2.75-1.24-4.42-3.17-4.42s-3.18 1.67-3.18 4.42 1.24 4.53 3.18 4.53 3.17-1.77 3.17-4.53z"/>
<path class="cls-1" d="M477.12,440.06h2.24l3.83,6.92,1.26,2.62h.08c-.1-1.26-.28-2.82-.28-4.2v-5.34h2.08v12.3H484.1l-3.84-6.92L479,442.83h-.07c.09,1.3.28,2.78.28,4.15v5.38h-2.09Z"/>
<path class="cls-1" d="M489.89,450.78l1.28-1.49a4.88,4.88,0,0,0,3.19,1.4c1.39,0,2.15-.62,2.15-1.58s-.79-1.34-1.9-1.81l-1.69-.73a3.54,3.54,0,0,1-2.48-3.27c0-2,1.72-3.46,4.13-3.46a5.42,5.42,0,0,1,3.78,1.56l-1.11,1.39a4,4,0,0,0-2.67-1.05c-1.17,0-1.94.54-1.94,1.45s.94,1.31,2,1.73l1.67.69a3.44,3.44,0,0,1,2.48,3.33c0,2-1.65,3.64-4.41,3.64A6.36,6.36,0,0,1,489.89,450.78Z"/>
<path class="cls-1" d="M508.34,449H504.2l-.95,3.33H501l4-12.3h2.56l4,12.3H509.3Zm-.49-1.71-.43-1.5c-.4-1.3-.75-2.71-1.11-4.06h-.08c-.33,1.37-.69,2.76-1.09,4.06l-.43,1.5ZM506,439.43l-1-1.09L508,435.8l1.17,1.43Z"/>
<path class="cls-1" d="m513.7 446.25c0-4 2.53-6.41 5.8-6.41a5.07 5.07 0 0 1 3.73 1.56l-1.17 1.41a3.32 3.32 0 0 0-2.48-1.07c-2.18 0-3.65 1.69-3.65 4.45s1.3 4.5 3.76 4.5a2.71 2.71 0 0 0 1.77-0.55v-2.65h-2.33v-1.78h4.28v5.41a5.59 5.59 0 0 1-3.92 1.46c-3.33 0-5.79-2.25-5.79-6.33z"/>
<path class="cls-1" d="m526.92 446.16c0-4 2.22-6.32 5.42-6.32s5.43 2.35 5.43 6.32-2.22 6.42-5.43 6.42-5.42-2.44-5.42-6.42zm8.6 0c0-2.75-1.25-4.42-3.18-4.42s-3.18 1.67-3.18 4.42 1.24 4.53 3.18 4.53 3.18-1.77 3.18-4.53z"/>
<path class="cls-1" d="M540.58,450.78l1.27-1.49a4.91,4.91,0,0,0,3.2,1.4c1.39,0,2.14-.62,2.14-1.58s-.79-1.34-1.9-1.81l-1.69-.73a3.55,3.55,0,0,1-2.48-3.27c0-2,1.73-3.46,4.14-3.46A5.42,5.42,0,0,1,549,441.4l-1.11,1.39a4,4,0,0,0-2.67-1.05c-1.17,0-1.94.54-1.94,1.45s.94,1.31,2,1.73l1.67.69a3.44,3.44,0,0,1,2.48,3.33c0,2-1.65,3.64-4.42,3.64A6.33,6.33,0,0,1,540.58,450.78Z"/>
<path class="cls-1" d="M558.44,440.06h2.18v5.59h.06l4.38-5.59h2.42l-3.78,4.8,4.42,7.5h-2.41l-3.32-5.79-1.77,2.2v3.59h-2.18Z"/>
<path class="cls-1" d="m571.27 440.06h7.4v1.85h-5.22v3.14h4.42v1.84h-4.42v3.63h5.41v1.84h-7.59zm2.59-1.72 2.95-2.54 1.17 1.43-3.16 2.2z"/>
<path class="cls-1" d="m582.08 451 5.94-9.13h-5.4v-1.85h8.11v1.32l-6 9.14h6v1.84h-8.68z"/>
<path class="cls-1" d="M594.36,440.06h3.93c2.53,0,4.39.78,4.39,3a2.77,2.77,0,0,1-1.71,2.67v.08a2.8,2.8,0,0,1,2.35,2.91c0,2.46-2,3.61-4.72,3.61h-4.24Zm3.74,5.08c1.71,0,2.44-.68,2.44-1.73,0-1.2-.81-1.65-2.41-1.65h-1.59v3.38Zm.28,5.53c1.8,0,2.82-.66,2.82-2s-1-1.86-2.82-1.86h-1.84v3.89Z"/>
<path class="cls-1" d="m607.1 440.06h7.41v1.85h-5.23v3.14h4.42v1.84h-4.42v3.63h5.41v1.84h-7.59z"/>
<path class="cls-1" d="M617.9,450.78l1.28-1.49a4.86,4.86,0,0,0,3.19,1.4c1.39,0,2.14-.62,2.14-1.58s-.79-1.34-1.89-1.81l-1.7-.73a3.55,3.55,0,0,1-2.48-3.27c0-2,1.73-3.46,4.14-3.46a5.42,5.42,0,0,1,3.78,1.56l-1.11,1.39a4,4,0,0,0-2.67-1.05c-1.17,0-1.94.54-1.94,1.45s.94,1.31,2,1.73l1.67.69a3.44,3.44,0,0,1,2.48,3.33c0,2-1.65,3.64-4.42,3.64A6.33,6.33,0,0,1,617.9,450.78Z"/>
<path class="cls-1" d="M630.26,438.34l3-2.54,1.17,1.43-3.16,2.2Zm.13,1.72h2.18v12.3h-2.18Z"/>
<path class="cls-1" d="m639.49 441.91h-3.55v-1.85h9.28v1.85h-3.55v10.45h-2.18z"/>
<path class="cls-1" d="M648.61,440.06H656v1.85h-5.23v3.14h4.42v1.84h-4.42v3.63h5.42v1.84h-7.6Zm2.6-1.72,2.95-2.54,1.16,1.43-3.15,2.2Z"/>
<path class="cls-1" d="M659.41,450.78l1.28-1.49a4.88,4.88,0,0,0,3.19,1.4c1.4,0,2.15-.62,2.15-1.58s-.79-1.34-1.9-1.81l-1.69-.73A3.54,3.54,0,0,1,660,443.3c0-2,1.72-3.46,4.13-3.46a5.42,5.42,0,0,1,3.78,1.56l-1.11,1.39a4,4,0,0,0-2.67-1.05c-1.17,0-1.94.54-1.94,1.45s.94,1.31,2,1.73l1.67.69a3.44,3.44,0,0,1,2.48,3.33c0,2-1.65,3.64-4.41,3.64A6.34,6.34,0,0,1,659.41,450.78Z"/>
<path class="cls-1" d="M672,440.06h2.18v12.3H672Z"/>
<path class="cls-1" d="M683.18,450.78l1.28-1.49a4.86,4.86,0,0,0,3.19,1.4c1.39,0,2.14-.62,2.14-1.58s-.79-1.34-1.9-1.81l-1.69-.73a3.55,3.55,0,0,1-2.48-3.27c0-2,1.73-3.46,4.14-3.46a5.38,5.38,0,0,1,3.77,1.56l-1.1,1.39a4,4,0,0,0-2.67-1.05c-1.17,0-1.94.54-1.94,1.45s.94,1.31,2,1.73l1.67.69a3.44,3.44,0,0,1,2.48,3.33c0,2-1.65,3.64-4.42,3.64A6.33,6.33,0,0,1,683.18,450.78Z"/>
<path class="cls-1" d="m694.87 451 5.94-9.13h-5.39v-1.85h8.1v1.32l-6 9.14h6v1.84h-8.69z"/>
<path class="cls-1" d="m706.19 446.16c0-4 2.22-6.32 5.42-6.32s5.43 2.35 5.43 6.32-2.22 6.42-5.43 6.42-5.42-2.44-5.42-6.42zm8.59 0c0-2.75-1.24-4.42-3.17-4.42s-3.18 1.67-3.18 4.42 1.24 4.53 3.18 4.53 3.17-1.77 3.17-4.53z"/>
<path class="cls-1" d="M721,440.06h2.18v10.46h5.11v1.84H721Z"/>
<path class="cls-1" d="m730.8 446.25c0-4 2.54-6.41 5.81-6.41a5 5 0 0 1 3.72 1.56l-1.16 1.41a3.34 3.34 0 0 0-2.48-1.07c-2.18 0-3.65 1.69-3.65 4.45s1.3 4.5 3.76 4.5a2.73 2.73 0 0 0 1.77-0.55v-2.65h-2.33v-1.78h4.28v5.41a5.6 5.6 0 0 1-3.93 1.46c-3.32 0-5.79-2.25-5.79-6.33z"/>
<path class="cls-1" d="M750.62,449h-4.13l-1,3.33h-2.22l4-12.3h2.56l4,12.3h-2.3Zm-.49-1.71-.43-1.5c-.39-1.3-.75-2.71-1.11-4.06h-.07c-.34,1.37-.7,2.76-1.09,4.06l-.43,1.5Zm-1.84-7.89-1-1.09,3-2.54,1.16,1.43Z"/>
<path class="cls-1" d="M757,440.06h2.18v10.46h5.12v1.84H757Z"/>
<path class="cls-1" d="M769,441.91H765.4v-1.85h9.28v1.85h-3.55v10.45H769Z"/>
<path class="cls-1" d="M782.93,449h-4.14l-1,3.33h-2.21l4-12.3h2.56l4,12.3h-2.29Zm-.49-1.71-.43-1.5c-.4-1.3-.75-2.71-1.11-4.06h-.08c-.34,1.37-.69,2.76-1.09,4.06l-.43,1.5Z"/>
<path class="cls-1" d="m790.67 441.91h-3.55v-1.85h9.28v1.85h-3.55v10.45h-2.18z"/>
<path class="cls-1" d="M804.65,449h-4.14l-1,3.33h-2.22l4-12.3h2.55l4,12.3h-2.29Zm-.49-1.71-.43-1.5c-.4-1.3-.76-2.71-1.11-4.06h-.08c-.34,1.37-.69,2.76-1.09,4.06l-.43,1.5Zm-1.84-7.89-1-1.09,2.95-2.54,1.16,1.43Z"/>
<path class="cls-1" d="M810.4,450.78l1.28-1.49a4.88,4.88,0,0,0,3.2,1.4c1.39,0,2.14-.62,2.14-1.58s-.79-1.34-1.9-1.81l-1.69-.73A3.54,3.54,0,0,1,811,443.3c0-2,1.73-3.46,4.13-3.46a5.42,5.42,0,0,1,3.78,1.56l-1.11,1.39a4,4,0,0,0-2.67-1.05c-1.16,0-1.94.54-1.94,1.45s1,1.31,2,1.73l1.67.69a3.44,3.44,0,0,1,2.48,3.33c0,2-1.65,3.64-4.41,3.64A6.36,6.36,0,0,1,810.4,450.78Z"/>
<path class="cls-2" d="M403.56,465.57a2.59,2.59,0,0,0-1-.22c-.86,0-1.27.6-1.27,1.76v1.45h1.93v1.26h-1.93v7.88H399.7v-7.88h-1.24v-1.16l1.24-.1v-1.45c0-1.86.85-3,2.67-3a4.17,4.17,0,0,1,1.53.3Z"/>
<path class="cls-2" d="m404.06 473.15c0-3 2-4.81 4.1-4.81 2.33 0 3.65 1.67 3.65 4.28a5.52 5.52 0 0 1-0.06 0.88h-6.16a3 3 0 0 0 3 3.18 4.16 4.16 0 0 0 2.28-0.71l0.54 1a5.43 5.43 0 0 1-3 0.94c-2.41 0.01-4.35-1.77-4.35-4.76zm6.4-0.75c0-1.85-0.83-2.84-2.26-2.84-1.28 0-2.44 1-2.63 2.84z"/>
<path class="cls-2" d="M414,475.86V464.31h1.54V476c0,.49.21.67.43.67a1.65,1.65,0,0,0,.34,0l.21,1.16a2,2,0,0,1-.89.15C414.45,477.92,414,477.19,414,475.86Z"/>
<path class="cls-2" d="M418,475.33c0-2,1.71-3,5.6-3.42,0-1.17-.38-2.3-1.88-2.3a4.94,4.94,0,0,0-2.72,1l-.61-1.07a6.77,6.77,0,0,1,3.59-1.18c2.24,0,3.18,1.48,3.18,3.76v5.6h-1.28l-.13-1.09h-.06a4.88,4.88,0,0,1-3,1.31A2.49,2.49,0,0,1,418,475.33Zm5.6.13v-2.54c-3,.38-4.1,1.13-4.1,2.3s.72,1.46,1.62,1.46A3.7,3.7,0,0,0,423.57,475.46Z"/>
<path class="cls-2" d="m427.28 473.15c0-3 1.88-4.81 4-4.81a3.74 3.74 0 0 1 2.55 1.05l-0.07-1.56v-3.52h1.56v13.39h-1.32l-0.13-1.07h-0.06a4.12 4.12 0 0 1-2.76 1.29c-2.28 0-3.77-1.73-3.77-4.77zm6.45 2.22v-4.78a3.21 3.21 0 0 0-2.22-1c-1.47 0-2.63 1.41-2.63 3.5s0.92 3.5 2.52 3.5a3.12 3.12 0 0 0 2.33-1.22z"/>
<path class="cls-2" d="m437.56 473.15c0-3.07 2-4.81 4.23-4.81s4.23 1.74 4.23 4.81-2 4.77-4.23 4.77-4.23-1.75-4.23-4.77zm6.86 0c0-2.11-1.05-3.54-2.63-3.54s-2.63 1.43-2.63 3.54 1.07 3.49 2.63 3.49 2.63-1.41 2.63-3.49zm-3.68-7 2.65-3.13 1.09 1-3 2.88z"/>
<path class="cls-2" d="M446.83,468.56h1.59l1.73,5.19c.27.9.57,1.82.85,2.69h.08c.26-.87.56-1.79.82-2.69l1.73-5.19h1.52l-3.23,9.14h-1.8Z"/>
<path class="cls-2" d="M456,473.15c0-3,2-4.81,4.1-4.81,2.33,0,3.64,1.67,3.64,4.28a5.65,5.65,0,0,1-.05.88h-6.17a3,3,0,0,0,3,3.18,4.12,4.12,0,0,0,2.27-.71l.55,1a5.43,5.43,0,0,1-3,.94C457.9,477.92,456,476.14,456,473.15Zm6.39-.75c0-1.85-.83-2.84-2.25-2.84a2.83,2.83,0,0,0-2.64,2.84Z"/>
<path class="cls-2" d="M464.54,468.56h1.6l1.73,5.19c.26.9.56,1.82.84,2.69h.08c.26-.87.56-1.79.83-2.69l1.73-5.19h1.52l-3.24,9.14h-1.8Z"/>
<path class="cls-2" d="m473.67 473.15c0-3 2-4.81 4.1-4.81 2.33 0 3.65 1.67 3.65 4.28a5.52 5.52 0 0 1-0.06 0.88h-6.16a3 3 0 0 0 3 3.18 4.16 4.16 0 0 0 2.28-0.71l0.54 1a5.43 5.43 0 0 1-3 0.94c-2.41 0.01-4.35-1.77-4.35-4.76zm6.39-0.75c0-1.85-0.82-2.84-2.25-2.84a2.81 2.81 0 0 0-2.63 2.84zm-3.34-6.25 2.65-3.13 1.09 1-2.95 2.88z"/>
<path class="cls-2" d="M483.62,468.56h1.27l.14,1.32h.05a4.31,4.31,0,0,1,3.07-1.54c1.91,0,2.78,1.24,2.78,3.57v5.79h-1.54v-5.59c0-1.71-.53-2.44-1.73-2.44-.94,0-1.58.49-2.5,1.41v6.62h-1.54Z"/>
<path class="cls-2" d="M492.63,481.44l.3-1.22a3,3,0,0,0,.69.13c1,0,1.69-.83,2.07-2l.21-.67-3.67-9.16h1.6l1.86,5.06c.28.79.6,1.73.88,2.57h.08c.26-.82.53-1.76.77-2.57l1.64-5.06h1.5l-3.44,9.89c-.64,1.8-1.58,3.18-3.42,3.18A3.06,3.06,0,0,1,492.63,481.44Z"/>
<path class="cls-2" d="m508.61 472.08h-3.42v-1.17h3.42v-3.66h1.22v3.66h3.42v1.17h-3.42v3.66h-1.22z"/>
<path class="cls-2" d="m519.46 474.88v-5.06h-1.35v-1.16l1.42-0.1 0.19-2.56h1.28v2.56h2.46v1.26h-2.46v5.08c0 1.12 0.36 1.76 1.41 1.76a3.36 3.36 0 0 0 1-0.24l0.3 1.16a5.52 5.52 0 0 1-1.69 0.34c-1.9 0-2.56-1.24-2.56-3.04z"/>
<path class="cls-2" d="m524.55 473.15c0-3 2-4.81 4.1-4.81 2.33 0 3.64 1.67 3.64 4.28a7.23 7.23 0 0 1 0 0.88h-6.17a3 3 0 0 0 3 3.18 4.15 4.15 0 0 0 2.27-0.71l0.55 1a5.43 5.43 0 0 1-3 0.94c-2.46 0.01-4.39-1.77-4.39-4.76zm6.39-0.75c0-1.85-0.83-2.84-2.26-2.84-1.27 0-2.44 1-2.63 2.84zm-3.35-6.25 2.65-3.13 1.09 1-3 2.88z"/>
<path class="cls-2" d="M534.49,468.56h1.28l.13,1.65H536a3.12,3.12,0,0,1,2.59-1.87,2.29,2.29,0,0,1,1,.18l-.3,1.36a2.42,2.42,0,0,0-.88-.15c-.78,0-1.7.56-2.32,2.1v5.87h-1.54Z"/>
<path class="cls-2" d="m541.91 474.88v-5.06h-1.36v-1.16l1.43-0.1 0.19-2.56h1.3v2.56h2.46v1.26h-2.46v5.08c0 1.12 0.35 1.76 1.41 1.76a3.43 3.43 0 0 0 1-0.24l0.3 1.16a5.64 5.64 0 0 1-1.69 0.34c-1.93 0-2.58-1.24-2.58-3.04z"/>
<path class="cls-2" d="M547.64,465.68a1.07,1.07,0,0,1,2.14,0,1.07,1.07,0,0,1-2.14,0Zm.28,2.88h1.54v9.14h-1.54Z"/>
<path class="cls-2" d="M551.15,468.56h1.6l1.73,5.19c.26.9.56,1.82.84,2.69h.08c.26-.87.56-1.79.83-2.69l1.72-5.19h1.53l-3.24,9.14h-1.8Z"/>
<path class="cls-2" d="m560.28 473.15c0-3 2-4.81 4.1-4.81 2.33 0 3.65 1.67 3.65 4.28a5.52 5.52 0 0 1-0.06 0.88h-6.16a3 3 0 0 0 3 3.18 4.16 4.16 0 0 0 2.28-0.71l0.54 1a5.43 5.43 0 0 1-3 0.94c-2.41 0.01-4.35-1.77-4.35-4.76zm6.39-0.75c0-1.85-0.82-2.84-2.25-2.84a2.81 2.81 0 0 0-2.63 2.84z"/>
<path class="cls-2" d="M568.86,468.56h1.6l1.73,5.19c.26.9.56,1.82.85,2.69h.07c.26-.87.56-1.79.83-2.69l1.73-5.19h1.52L574,477.7h-1.81Z"/>
<path class="cls-2" d="M578,473.15c0-3,2-4.81,4.09-4.81,2.33,0,3.65,1.67,3.65,4.28a5.52,5.52,0,0,1-.06.88h-6.16a3,3,0,0,0,3,3.18,4.16,4.16,0,0,0,2.28-.71l.54,1a5.4,5.4,0,0,1-3,.94C579.93,477.92,578,476.14,578,473.15Zm6.39-.75c0-1.85-.83-2.84-2.26-2.84s-2.44,1-2.63,2.84ZM581,466.15l2.65-3.13,1.09,1-2.95,2.88Z"/>
<path class="cls-2" d="M587.94,468.56h1.28l.13,1.32h0a4.31,4.31,0,0,1,3.07-1.54c1.92,0,2.78,1.24,2.78,3.57v5.79h-1.54v-5.59c0-1.71-.53-2.44-1.73-2.44-.94,0-1.58.49-2.5,1.41v6.62h-1.54Z"/>
<path class="cls-2" d="M597,481.44l.3-1.22a3,3,0,0,0,.7.13c1,0,1.69-.83,2.06-2l.21-.67-3.67-9.16h1.6l1.86,5.06c.28.79.61,1.73.89,2.57H601c.26-.82.53-1.76.77-2.57l1.64-5.06h1.5l-3.44,9.89c-.64,1.8-1.58,3.18-3.42,3.18A3.1,3.1,0,0,1,597,481.44Z"/>
<path class="cls-2" d="m612.93 472.08h-3.42v-1.17h3.42v-3.66h1.22v3.66h3.42v1.17h-3.42v3.66h-1.22z"/>
<path class="cls-2" d="M623.52,464.31H625v9.06h.06l3.89-4.81h1.71l-3.07,3.67,3.48,5.47h-1.69l-2.67-4.4-1.71,2v2.41h-1.52Z"/>
<path class="cls-2" d="m631.76 473.15c0-3 2-4.81 4.1-4.81 2.33 0 3.64 1.67 3.64 4.28a7.23 7.23 0 0 1 0 0.88h-6.17a3 3 0 0 0 3 3.18 4.16 4.16 0 0 0 2.28-0.71l0.54 1a5.37 5.37 0 0 1-3 0.94c-2.46 0.01-4.39-1.77-4.39-4.76zm6.39-0.75c0-1.85-0.83-2.84-2.26-2.84-1.27 0-2.44 1-2.63 2.84zm-3.35-6.25 2.65-3.13 1.09 1-2.95 2.88z"/>
<path class="cls-2" d="M640.8,476.87l4.81-7.05h-4.28v-1.26h6.24v.83l-4.81,7.05h5v1.26H640.8Z"/>
<path class="cls-2" d="m651 476.76h-0.06l-0.13 0.94h-1.24v-13.39h1.54v3.69 1.65a4.54 4.54 0 0 1 2.86-1.27c2.37 0 3.63 1.82 3.63 4.64 0 3.12-1.86 4.94-3.95 4.94a4.11 4.11 0 0 1-2.65-1.2zm5-3.76c0-2-0.67-3.37-2.4-3.37a3.76 3.76 0 0 0-2.45 1.24v4.8a3.62 3.62 0 0 0 2.24 1c1.44-0.04 2.55-1.42 2.55-3.67z"/>
<path class="cls-2" d="m659.27 473.15c0-3 2-4.81 4.1-4.81 2.33 0 3.65 1.67 3.65 4.28a5.52 5.52 0 0 1-0.06 0.88h-6.17a3 3 0 0 0 3.05 3.18 4.16 4.16 0 0 0 2.28-0.71l0.54 1a5.43 5.43 0 0 1-3 0.94c-2.45 0.01-4.39-1.77-4.39-4.76zm6.39-0.75c0-1.85-0.82-2.84-2.25-2.84a2.81 2.81 0 0 0-2.63 2.84z"/>
<path class="cls-2" d="M668.28,476.66l.77-1a4.11,4.11,0,0,0,2.69,1.09c1.2,0,1.8-.64,1.8-1.43,0-.94-1.09-1.35-2.09-1.73-1.29-.47-2.72-1.09-2.72-2.63s1.16-2.59,3.14-2.59a4.61,4.61,0,0,1,2.84,1l-.74,1a3.37,3.37,0,0,0-2.08-.81c-1.15,0-1.68.62-1.68,1.31,0,.87,1,1.19,2,1.58,1.32.49,2.79,1,2.79,2.77,0,1.48-1.19,2.72-3.35,2.72A5.44,5.44,0,0,1,668.28,476.66Z"/>
<path class="cls-2" d="M676.73,466.15l2.65-3.13,1.09,1-3,2.88Zm.28,2.41h1.54v9.14H677Z"/>
<path class="cls-2" d="m681.71 474.88v-5.06h-1.36v-1.16l1.43-0.1 0.22-2.56h1.3v2.56h2.46v1.26h-2.46v5.08c0 1.12 0.36 1.76 1.41 1.76a3.36 3.36 0 0 0 1-0.24l0.3 1.16a5.64 5.64 0 0 1-1.69 0.34c-1.95 0-2.61-1.24-2.61-3.04z"/>
<path class="cls-2" d="m686.79 473.15c0-3 2-4.81 4.1-4.81 2.33 0 3.65 1.67 3.65 4.28a5.52 5.52 0 0 1-0.06 0.88h-6.16a3 3 0 0 0 3 3.18 4.16 4.16 0 0 0 2.28-0.71l0.54 1a5.4 5.4 0 0 1-3 0.94c-2.41 0.01-4.35-1.77-4.35-4.76zm6.4-0.75c0-1.85-0.83-2.84-2.26-2.84-1.28 0-2.44 1-2.63 2.84zm-3.35-6.25 2.65-3.13 1.09 1-3 2.88z"/>
<path class="cls-2" d="M695.8,476.66l.77-1a4.11,4.11,0,0,0,2.69,1.09c1.2,0,1.8-.64,1.8-1.43,0-.94-1.09-1.35-2.08-1.73-1.3-.47-2.73-1.09-2.73-2.63s1.17-2.59,3.14-2.59a4.59,4.59,0,0,1,2.84,1l-.73,1a3.4,3.4,0,0,0-2.09-.81c-1.15,0-1.67.62-1.67,1.31,0,.87,1,1.19,2,1.58,1.31.49,2.78,1,2.78,2.77,0,1.48-1.19,2.72-3.35,2.72A5.44,5.44,0,0,1,695.8,476.66Z"/>
<path class="cls-2" d="M704.25,465.68a1.07,1.07,0,0,1,2.14,0,1.07,1.07,0,0,1-2.14,0Zm.28,2.88h1.54v9.14h-1.54Z"/>
<path class="cls-2" d="M711.6,468.56h1.6l1.73,5.19c.27.9.57,1.82.85,2.69h.07c.27-.87.57-1.79.83-2.69l1.73-5.19h1.52l-3.23,9.14h-1.81Z"/>
<path class="cls-2" d="m720.74 473.15c0-3 2-4.81 4.1-4.81 2.33 0 3.64 1.67 3.64 4.28a7.23 7.23 0 0 1-0.05 0.88h-6.17a3 3 0 0 0 3 3.18 4.16 4.16 0 0 0 2.28-0.71l0.55 1a5.43 5.43 0 0 1-3 0.94c-2.42 0.01-4.35-1.77-4.35-4.76zm6.39-0.75c0-1.85-0.83-2.84-2.26-2.84-1.27 0-2.44 1-2.63 2.84zm-3.35-6.25 2.65-3.13 1.09 1-2.95 2.88z"/>
<path class="cls-2" d="M730.65,475.86V464.31h1.54V476c0,.49.21.67.44.67a1.57,1.57,0,0,0,.33,0l.21,1.16a2,2,0,0,1-.88.15C731.12,477.92,730.65,477.19,730.65,475.86Z"/>
<path class="cls-2" d="m734.49 473.15c0-3 2-4.81 4.1-4.81 2.33 0 3.64 1.67 3.64 4.28a7.23 7.23 0 0 1-0.05 0.88h-6.18a3 3 0 0 0 3 3.18 4.12 4.12 0 0 0 2.27-0.71l0.55 1a5.43 5.43 0 0 1-3 0.94c-2.39 0.01-4.33-1.77-4.33-4.76zm6.39-0.75c0-1.85-0.83-2.84-2.25-2.84a2.83 2.83 0 0 0-2.63 2.84z"/>
<path class="cls-2" d="M744.4,475.86V464.31h1.54V476c0,.49.21.67.44.67a1.57,1.57,0,0,0,.33,0l.21,1.16a2,2,0,0,1-.88.15C744.87,477.92,744.4,477.19,744.4,475.86Z"/>
<path class="cls-2" d="m748.24 473.15c0-3 2-4.81 4.1-4.81 2.33 0 3.65 1.67 3.65 4.28a5.52 5.52 0 0 1-0.06 0.88h-6.16a3 3 0 0 0 3 3.18 4.16 4.16 0 0 0 2.28-0.71l0.54 1a5.43 5.43 0 0 1-3 0.94c-2.41 0.01-4.35-1.77-4.35-4.76zm6.39-0.75c0-1.85-0.82-2.84-2.25-2.84a2.81 2.81 0 0 0-2.63 2.84z"/>
<path class="cls-2" d="M758.19,468.56h1.27l.14,1.32h0a4,4,0,0,1,2.84-1.54,2.4,2.4,0,0,1,2.52,1.74,4.32,4.32,0,0,1,3-1.74c1.88,0,2.78,1.24,2.78,3.57v5.79h-1.54v-5.59c0-1.71-.55-2.44-1.69-2.44a3.36,3.36,0,0,0-2.3,1.41v6.62h-1.54v-5.59c0-1.71-.54-2.44-1.71-2.44a3.4,3.4,0,0,0-2.29,1.41v6.62h-1.54Z"/>
<rect class="cls-3" x="247.44" width="187.06" height="279.2" rx="6.65"/>
<rect class="cls-4" x="259.32" y="39.22" width="163.29" height="66.48" rx="6.65"/>
<rect class="cls-4" x="259.32" y="200.22" width="163.29" height="66.48" rx="6.65"/>
<rect class="cls-4" x="259.32" y="119.72" width="163.29" height="66.48" rx="6.65"/>
<rect class="cls-5" x="511.34" width="380.79" height="279.2" rx="6.65"/>
<rect class="cls-3" transform="translate(993.45 1299.4) rotate(-90)" x="1060" y="129.37" width="172.84" height="47.18" rx="6.65"/>
<path class="cls-6" d="M1150.58,215.06l-1.11-.95a3.65,3.65,0,0,0,1-2.39c0-1-.46-1.61-1.18-1.61s-1,.59-1.35,1.42l-.55,1.27a2.66,2.66,0,0,1-2.45,1.86c-1.46,0-2.58-1.3-2.58-3.1a4.1,4.1,0,0,1,1.16-2.83l1,.83a3,3,0,0,0-.78,2c0,.87.4,1.45,1.08,1.45s1-.7,1.29-1.46l.52-1.25a2.58,2.58,0,0,1,2.5-1.86c1.49,0,2.72,1.24,2.72,3.3A4.75,4.75,0,0,1,1150.58,215.06Z"/>
<path class="cls-6" d="M1149.28,201.52v3.09l2.49.72V207l-9.21-3v-1.92l9.21-3v1.71Zm-1.28.37-1.13.32c-1,.29-2,.56-3,.83v.06c1,.25,2.07.52,3,.81l1.13.32Z"/>
<path class="cls-6" d="m1150.4 197.6-0.83-1.12a1.61 1.61 0 0 0 1-1.44c0-0.86-0.46-1.29-1.77-1.29h-6.18v-1.63h6.32c1.68 0 3 0.81 3 2.74a2.89 2.89 0 0 1-1.54 2.74z"/>
<path class="cls-6" d="M1142.09,186.61l-.82.72-1.9-2.21,1.07-.87Zm7.19-1.74V188l2.49.72v1.66l-9.21-3v-1.91l9.21-3v1.72Zm-1.28.36-1.13.33c-1,.29-2,.56-3,.83v.05c1,.26,2.07.52,3,.82l1.13.32Z"/>
<path class="cls-6" d="m1143.9 179.33v2.67h-1.38v-7h1.38v2.66h7.83v1.63z"/>
<path class="cls-6" d="M1151.77,164l-3.61,2v1.41h3.61V169h-9.21v-3.11c0-1.91.68-3.37,2.73-3.37a2.57,2.57,0,0,1,2.63,1.83l3.85-2.2Zm-4.9,3.39v-1.31c0-1.25-.54-1.94-1.58-1.94s-1.42.69-1.42,1.94v1.31Z"/>
<path class="cls-6" d="m1142.6 159.83v-5.55h1.38v3.92h2.35v-3.31h1.38v3.31h2.72v-4.06h1.38v5.69z"/>
<path class="cls-6" d="M1142.56,151.53v-1.67l5.18-2.87,2-.94V146c-1,.07-2.11.21-3.14.21h-4v-1.56h9.21v1.67l-5.18,2.88-2,.94v.05c1-.07,2.08-.21,3.11-.21h4v1.56Z"/>
<path class="cls-6" d="m1142.6 141.52v-2.47c0-2.81 1.52-4.47 4.56-4.47s4.65 1.66 4.65 4.39v2.55zm7.88-2.35c0-1.86-1-2.92-3.32-2.92s-3.23 1.06-3.23 2.92v0.71h6.55z"/>
<path class="cls-6" d="M1150.58,132.73l-1.11-.95a3.65,3.65,0,0,0,1-2.39c0-1-.46-1.61-1.18-1.61s-1,.59-1.35,1.42l-.55,1.27a2.66,2.66,0,0,1-2.45,1.86c-1.46,0-2.58-1.3-2.58-3.1a4.1,4.1,0,0,1,1.16-2.83l1,.83a3,3,0,0,0-.78,2c0,.87.4,1.45,1.08,1.45s1-.7,1.29-1.46l.52-1.25a2.58,2.58,0,0,1,2.5-1.86c1.49,0,2.72,1.24,2.72,3.3A4.75,4.75,0,0,1,1150.58,132.73Z"/>
<path class="cls-6" d="m1150.8 124.24-6.84-4.45v4h-1.38v-6.06h1l6.84 4.46v-4.49h1.38v6.5z"/>
<path class="cls-6" d="m1142.6 115.31v-5.54h1.38v3.91h2.35v-3.31h1.38v3.31h2.72v-4.05h1.38v5.68z"/>
<path class="cls-6" d="M1151.77,102l-3.61,2v1.4h3.61V107h-9.21v-3.11c0-1.92.68-3.38,2.73-3.38a2.57,2.57,0,0,1,2.63,1.83l3.85-2.19Zm-4.9,3.39v-1.3c0-1.26-.54-1.94-1.58-1.94s-1.42.68-1.42,1.94v1.3Z"/>
<path class="cls-6" d="M1142.56,97.84V92.3h1.38v3.91h2.35V92.9h1.38v3.31h2.72v-4h1.38v5.68Z"/>
<rect class="cls-6" x="511.34" y="325.74" width="380.87" height="66.48" rx="6.65"/>
<path class="cls-6" d="M318.94,13.38h3.31l2.7,5.44,1.16,2.74h.08a43.72,43.72,0,0,1-.41-4.65V13.38h3.07v12.2h-3.3l-2.7-5.46-1.17-2.72h-.07a45.43,45.43,0,0,1,.41,4.65v3.53h-3.08Z"/>
<path class="cls-6" d="m333.45 13.38h3.23v12.2h-3.23z"/>
<path class="cls-6" d="M340.4,24.06l1.84-2.22A5,5,0,0,0,345.1,23c1,0,1.39-.32,1.39-.87s-.62-.77-1.66-1.18l-1.52-.64a3.6,3.6,0,0,1-2.45-3.4c0-2.08,1.87-3.79,4.54-3.79a5.84,5.84,0,0,1,4.05,1.64l-1.61,2a4,4,0,0,0-2.44-.88c-.79,0-1.28.28-1.28.83s.7.79,1.8,1.22l1.49.58a3.35,3.35,0,0,1,2.38,3.34c0,2.06-1.73,3.9-4.77,3.9A7.09,7.09,0,0,1,340.4,24.06Z"/>
<path class="cls-6" d="m352.9 23.63 5-7.55h-4.51v-2.7h8.49v1.95l-5 7.55h5v2.7h-9z"/>
<path class="cls-3" transform="translate(374.82 -68.91) rotate(90)" d="m108.86 130.71h226v37.84a6.65 6.65 0 0 1-6.65 6.65h-212.71a6.65 6.65 0 0 1-6.65-6.65v-37.84a0 0 0 0 1 0.01 0z"/>
<path class="cls-6" d="M218.54,207.25v-1.67l4.65-.81,2.94-.45v0l-2.94-.61-4.65-1.12v-1.42l4.65-1.13,2.94-.62v-.06l-2.94-.43-4.65-.8v-1.56l9.21,1.75v2l-4.84,1.14c-.72.15-1.43.29-2.13.41v.05c.7.13,1.41.27,2.13.43l4.84,1.11v2Z"/>
<path class="cls-6" d="m218.54 194.21v-5.55h1.38v3.91h2.35v-3.3h1.38v3.3h2.72v-4h1.38v5.69z"/>
<path class="cls-6" d="M218.54,185.91V183c0-1.9.58-3.29,2.27-3.29a2.08,2.08,0,0,1,2,1.28h.05A2.11,2.11,0,0,1,225,179.2c1.85,0,2.71,1.51,2.71,3.53v3.18Zm3.8-2.8c0-1.28-.5-1.83-1.29-1.83s-1.24.61-1.24,1.8v1.2h2.53Zm4.14-.21c0-1.35-.49-2.11-1.52-2.11s-1.39.73-1.39,2.11v1.38h2.91Z"/>
<path class="cls-6" d="m218.54 176.64v-5.55h1.38v3.91h2.35v-3.3h1.38v3.3h2.72v-4h1.38v5.69z"/>
<path class="cls-6" d="M226.56,168.82l-1.11-1a3.65,3.65,0,0,0,1-2.39c0-1-.46-1.61-1.18-1.61s-1,.6-1.35,1.43l-.55,1.26a2.66,2.66,0,0,1-2.45,1.86c-1.46,0-2.58-1.3-2.58-3.1a4.05,4.05,0,0,1,1.16-2.82l1,.83a3,3,0,0,0-.78,2c0,.88.4,1.45,1.08,1.45s1-.7,1.29-1.46l.52-1.25a2.58,2.58,0,0,1,2.49-1.86c1.5,0,2.73,1.24,2.73,3.31A4.79,4.79,0,0,1,226.56,168.82Z"/>
<path class="cls-6" d="M218.54,156v-5.55h1.38v3.92h2.61V151h1.37v3.35h3.85V156Z"/>
<path class="cls-6" d="m218.54 148.14v-5.55h1.38v3.91h2.35v-3.3h1.38v3.3h2.72v-4.05h1.38v5.69z"/>
<path class="cls-6" d="m218.54 139.84v-1.63h7.83v-3.83h1.38v5.46z"/>
<path class="cls-6" d="M217,128.18a.81.81,0,0,1-.84-.85.84.84,0,0,1,1.67,0A.81.81,0,0,1,217,128.18Zm0,3a.8.8,0,0,1-.84-.83.84.84,0,1,1,1.67,0A.79.79,0,0,1,217,131.17Zm6.76,1.16h-5.17V130.7h5.29c2,0,2.66-.75,2.66-1.86s-.66-1.91-2.66-1.91h-5.29v-1.57h5.17c3,0,4.2,1.34,4.2,3.48S226.73,132.33,223.71,132.33Z"/>
<path class="cls-6" d="m218.54 122.29v-1.64h7.83v-3.82h1.38v5.46z"/>
<path class="cls-6" d="M218.54,114.52V109h1.38v3.91h2.35v-3.3h1.38v3.3h2.72v-4h1.38v5.69Z"/>
<path class="cls-6" d="M219.92,104.19v2.66h-1.38V99.9h1.38v2.66h7.83v1.63Z"/>
<path class="cls-3" transform="translate(613.02 -307.11) rotate(90)" d="m353.7 130.71h212.73a6.65 6.65 0 0 1 6.65 6.65v37.84h-226v-37.84a6.65 6.65 0 0 1 6.62-6.65z"/>
<path class="cls-6" d="m461.17 207c-3 0-4.8-1.9-4.8-4.35a3.81 3.81 0 0 1 1.17-2.79l1.06 0.88a2.47 2.47 0 0 0-0.81 1.85c0 1.63 1.27 2.73 3.34 2.73s3.36-1 3.36-2.81a2 2 0 0 0-0.41-1.32h-2v1.81h-1.34v-3.21h4.05a4.22 4.22 0 0 1 1.1 2.94c0.02 2.45-1.67 4.27-4.72 4.27z"/>
<path class="cls-6" d="m455.25 194.92-1.9-2.21 1.07-0.87 1.64 2.36zm1.29 1.94v-5.54h1.38v3.91h2.35v-3.31h1.38v3.31h2.71v-4h1.38v5.68z"/>
<path class="cls-6" d="M456.54,188.57v-2.9c0-2,.71-3.56,2.84-3.56s3,1.52,3,3.5v1.33h3.37v1.63Zm4.52-2.83c0-1.36-.55-2-1.68-2s-1.53.72-1.53,2.09v1.14h3.21Z"/>
<path class="cls-6" d="m456.54 179.74v-1.63h9.2v1.63z"/>
<path class="cls-6" d="m456.54 171.27v-1.64h9.2v1.64z"/>
<path class="cls-6" d="M456.54,166.54v-1.68l5.18-2.87,2-.94V161c-.95.07-2.12.21-3.14.21h-4v-1.56h9.2v1.68l-5.17,2.87-2,.94v.06c1-.07,2.08-.22,3.11-.22h4v1.57Z"/>
<path class="cls-6" d="m457.92 154.7v2.66h-1.38v-7h1.38v2.66h7.82v1.63z"/>
<path class="cls-6" d="m456.54 148.13v-5.54h1.38v3.91h2.35v-3.31h1.38v3.31h2.71v-4.05h1.38v5.68z"/>
<path class="cls-6" d="M465.74,134.82l-3.6,2v1.41h3.6v1.63h-9.2v-3.11c0-1.91.68-3.38,2.73-3.38a2.58,2.58,0,0,1,2.63,1.83l3.84-2.19Zm-4.89,3.39V136.9c0-1.25-.54-1.94-1.58-1.94s-1.42.69-1.42,1.94v1.31Z"/>
<path class="cls-6" d="M456.54,130.67v-5.56h1.38V129h2.6v-3.34h1.38V129h3.84v1.64Z"/>
<path class="cls-6" d="M463.25,118.8v3.09l2.49.72v1.66l-9.2-3v-1.91l9.2-3v1.72Zm-1.28.36-1.12.33c-1,.29-2,.56-3,.83v.05c1,.26,2.07.52,3,.82l1.12.32Z"/>
<path class="cls-6" d="m461.17 115.05c-3 0-4.8-1.89-4.8-4.21a3.67 3.67 0 0 1 1.17-2.66l1.06 0.87a2.41 2.41 0 0 0-0.81 1.75c0 1.5 1.27 2.57 3.34 2.57s3.36-1 3.36-2.53a2.62 2.62 0 0 0-0.94-2l1-0.87a3.71 3.71 0 0 1 1.33 2.9c0.03 2.35-1.66 4.18-4.71 4.18z"/>
<path class="cls-6" d="m456.54 105.72v-5.54h1.38v3.91h2.35v-3.31h1.38v3.31h2.71v-4h1.38v5.68z"/>
<path class="cls-6" d="M291.18,58.82h1.63v3.7h3.73v-3.7h1.63V68h-1.63V63.94h-3.73V68h-1.63Z"/>
<path class="cls-6" d="M301.29,58.82h1.63V68h-1.63Z"/>
<path class="cls-6" d="M305,58.82h1.73L308,63.45c.3,1,.51,1.94.82,3h.06c.3-1.06.52-2,.8-3L311,58.82h1.67L309.78,68h-1.93Z"/>
<path class="cls-6" d="M318.59,65.53H315.5L314.78,68h-1.66l3-9.2H318l3,9.2h-1.72Zm-.36-1.28-.33-1.12c-.29-1-.56-2-.83-3H317c-.26,1-.52,2.07-.82,3l-.32,1.12Z"/>
<path class="cls-6" d="M324.13,60.2h-2.66V58.82h6.95V60.2h-2.66V68h-1.63Z"/>
<path class="cls-6" d="M334.34,65.53h-3.1L330.52,68h-1.66l3-9.2h1.91l3,9.2h-1.72ZM334,64.25l-.32-1.12c-.3-1-.57-2-.83-3h-.06c-.25,1-.52,2.07-.81,3l-.33,1.12Z"/>
<path class="cls-6" d="M338.85,58.82h1.63v7.82h3.83V68h-5.46Z"/>
<path class="cls-6" d="M346.62,58.82h1.63V68h-1.63Z"/>
<path class="cls-6" d="M355.09,58.82h1.63V63h0L360,58.82h1.82L359,62.41,362.34,68h-1.8l-2.49-4.33-1.33,1.65V68h-1.63Z"/>
<path class="cls-6" d="M369.31,65.53h-3.09L365.5,68h-1.66l3-9.2h1.91l3,9.2H370ZM369,64.25l-.32-1.12c-.3-1-.57-2-.83-3h-.06c-.25,1-.52,2.07-.82,3l-.32,1.12Z"/>
<path class="cls-6" d="M373.83,58.82h2.9c2,0,3.56.71,3.56,2.84s-1.52,3-3.51,3h-1.32V68h-1.63Zm2.83,4.52c1.36,0,2-.55,2-1.68s-.72-1.53-2.08-1.53h-1.14v3.21Z"/>
<path class="cls-6" d="M382.64,64V58.82h1.63v5.29c0,2,.75,2.66,1.86,2.66s1.91-.66,1.91-2.66V58.82h1.56V64c0,3-1.33,4.2-3.47,4.2S382.64,67,382.64,64Z"/>
<path class="cls-2" d="M312,83.48H314V76.87h-1.63v-.74a5.53,5.53,0,0,0,1.9-.67h.88v8H317v1H312Z"/>
<path class="cls-2" d="M324,82h-1.23v2.48h-1.09V82h-4V81.2l3.84-5.74h1.29V81H324ZM321.67,81v-2.6c0-.48,0-1.25.07-1.73h-.06c-.23.44-.48.83-.73,1.27L318.85,81Z"/>
<path class="cls-2" d="M325.16,83.74a.85.85,0,0,1,.85-.9.89.89,0,0,1,0,1.77A.85.85,0,0,1,325.16,83.74Z"/>
<path class="cls-2" d="M328.45,83.75c2.7-2.69,4.22-4.3,4.22-5.75A1.59,1.59,0,0,0,331,76.24a2.66,2.66,0,0,0-1.91,1.08l-.66-.66a3.53,3.53,0,0,1,2.72-1.37,2.49,2.49,0,0,1,2.68,2.65c0,1.69-1.53,3.36-3.66,5.58.5,0,1.05-.08,1.51-.08h2.6v1h-5.79Z"/>
<path class="cls-2" d="m335.29 79.92c0-3 1.09-4.63 2.89-4.63s2.87 1.62 2.87 4.63-1.09 4.69-2.87 4.69-2.89-1.68-2.89-4.69zm4.63 0c0-2.63-0.7-3.7-1.74-3.7s-1.76 1.07-1.76 3.7 0.7 3.76 1.76 3.76 1.74-1.13 1.74-3.76z"/>
<path class="cls-2" d="m342.47 79.92c0-3 1.08-4.63 2.88-4.63s2.87 1.62 2.87 4.63-1.08 4.69-2.87 4.69-2.88-1.68-2.88-4.69zm4.63 0c0-2.63-0.71-3.7-1.75-3.7s-1.75 1.07-1.75 3.7 0.7 3.76 1.75 3.76 1.75-1.13 1.75-3.76z"/>
<path class="cls-2" d="m352.32 81c0-2.22 1.41-3.6 3-3.6a2.81 2.81 0 0 1 1.91 0.79l-0.06-1.17v-2.6h1.17v10h-0.95l-0.1-0.8h-0.05a3.06 3.06 0 0 1-2.06 1c-1.75-0.01-2.86-1.31-2.86-3.62zm4.82 1.66v-3.54a2.36 2.36 0 0 0-1.66-0.72c-1.09 0-2 1.06-2 2.62s0.69 2.62 1.89 2.62a2.3 2.3 0 0 0 1.77-0.95z"/>
<path class="cls-2" d="m361.51 83.74-0.1 0.7h-0.93v-10h1.16v2.73 1.24a3.38 3.38 0 0 1 2.14-1c1.77 0 2.71 1.37 2.71 3.48 0 2.33-1.39 3.7-2.95 3.7a3.14 3.14 0 0 1-2.03-0.85zm3.72-2.82c0-1.5-0.51-2.52-1.8-2.52a2.83 2.83 0 0 0-1.83 0.93v3.59a2.67 2.67 0 0 0 1.67 0.72c1.13 0 1.96-1.03 1.96-2.72z"/>
<path class="cls-6" d="m309.34 144.31c0-3 1.89-4.79 4.21-4.79a3.66 3.66 0 0 1 2.66 1.16l-0.87 1.06a2.4 2.4 0 0 0-1.75-0.8c-1.5 0-2.57 1.26-2.57 3.33s1 3.36 2.53 3.36a2.62 2.62 0 0 0 2-0.94l0.87 1a3.7 3.7 0 0 1-2.9 1.33c-2.35 0.03-4.18-1.65-4.18-4.71z"/>
<path class="cls-6" d="M318.67,139.69h5.54v1.37H320.3v2.35h3.31v1.38H320.3v2.72h4.05v1.38h-5.68Zm1.94-1.3,2.21-1.9.87,1.07-2.36,1.65Z"/>
<path class="cls-6" d="m326.28 144.31c0-3 1.9-4.79 4.35-4.79a3.76 3.76 0 0 1 2.78 1.16l-0.87 1.06a2.49 2.49 0 0 0-1.86-0.8c-1.63 0-2.72 1.26-2.72 3.33s1 3.36 2.81 3.36a2.06 2.06 0 0 0 1.32-0.4v-2h-1.74v-1.33h3.2v4.1a4.18 4.18 0 0 1-2.94 1.09c-2.49-0.04-4.33-1.72-4.33-4.78z"/>
<path class="cls-6" d="m336.45 139.69h1.63v4.17l3.28-4.17h1.81l-2.82 3.58 3.3 5.62h-1.8l-2.49-4.34-1.32 1.65v2.69h-1.63z"/>
<path class="cls-6" d="M350.67,146.4h-3.1l-.71,2.49H345.2l3-9.2h1.92l3,9.2h-1.71Zm-.37-1.28L350,144c-.3-1-.56-2-.83-3h-.06c-.25,1-.52,2.07-.81,3l-.33,1.13Z"/>
<path class="cls-6" d="M355.18,139.69h2.9c2,0,3.56.7,3.56,2.84s-1.52,3-3.5,3h-1.33v3.38h-1.63ZM358,144.2c1.37,0,2-.55,2-1.67S359.32,141,358,141h-1.14v3.21Z"/>
<path class="cls-6" d="M364,144.85v-5.16h1.64V145c0,2,.74,2.66,1.85,2.66s1.92-.66,1.92-2.66v-5.28H371v5.16c0,3-1.34,4.2-3.48,4.2S364,147.87,364,144.85Z"/>
<path class="cls-2" d="m314.49 157.83a2 2 0 0 0-1.48-0.7c-1.25 0-2.3 1-2.36 3.81a2.88 2.88 0 0 1 2.1-1.13c1.54 0 2.56 0.93 2.56 2.78a2.72 2.72 0 0 1-2.66 2.88c-1.76 0-3.1-1.43-3.1-4.32 0-3.6 1.64-5 3.42-5a2.84 2.84 0 0 1 2.17 1zm-0.28 4.76c0-1.17-0.55-1.9-1.66-1.9a2.41 2.41 0 0 0-1.87 1.18c0.14 1.74 0.83 2.69 2 2.69 0.85 0 1.53-0.79 1.53-1.97z"/>
<path class="cls-2" d="M316.64,164.35h2.05v-6.62h-1.63V157a5.39,5.39,0,0,0,1.9-.66h.89v8h1.85v1h-5.06Z"/>
<path class="cls-2" d="m322.76 160.79c0-3 1.08-4.63 2.89-4.63s2.87 1.61 2.87 4.63-1.09 4.68-2.87 4.68-2.89-1.67-2.89-4.68zm4.63 0c0-2.64-0.7-3.7-1.74-3.7s-1.76 1.06-1.76 3.7 0.7 3.75 1.76 3.75 1.74-1.12 1.74-3.75z"/>
<path class="cls-2" d="M329.88,164.6a.84.84,0,1,1,.85.87A.85.85,0,0,1,329.88,164.6Z"/>
<path class="cls-2" d="m332.91 160.79c0-3 1.08-4.63 2.88-4.63s2.87 1.61 2.87 4.63-1.08 4.68-2.87 4.68-2.88-1.67-2.88-4.68zm4.63 0c0-2.64-0.71-3.7-1.75-3.7s-1.76 1.06-1.76 3.7 0.71 3.75 1.76 3.75 1.75-1.12 1.75-3.75z"/>
<path class="cls-2" d="m340.08 160.79c0-3 1.09-4.63 2.89-4.63s2.87 1.61 2.87 4.63-1.09 4.68-2.87 4.68-2.89-1.67-2.89-4.68zm4.63 0c0-2.64-0.7-3.7-1.74-3.7s-1.76 1.06-1.76 3.7 0.7 3.75 1.76 3.75 1.74-1.12 1.74-3.75z"/>
<path class="cls-2" d="m347.26 160.79c0-3 1.08-4.63 2.88-4.63s2.87 1.61 2.87 4.63-1.08 4.68-2.87 4.68-2.88-1.67-2.88-4.68zm4.63 0c0-2.64-0.71-3.7-1.75-3.7s-1.76 1.06-1.76 3.7 0.71 3.75 1.76 3.75 1.75-1.12 1.75-3.75z"/>
<path class="cls-2" d="m357.11 161.9c0-2.23 1.41-3.6 3-3.6a2.82 2.82 0 0 1 1.91 0.78l-0.06-1.16v-2.63h1.17v10h-1l-0.1-0.8h-0.03a3.06 3.06 0 0 1-2.06 1c-1.72-0.02-2.83-1.31-2.83-3.59zm4.82 1.66v-3.56a2.35 2.35 0 0 0-1.66-0.71c-1.09 0-2 1-2 2.61s0.69 2.62 1.89 2.62a2.31 2.31 0 0 0 1.77-0.96z"/>
<path class="cls-2" d="m366.3 164.6-0.1 0.7h-0.93v-10h1.16v2.7 1.24a3.37 3.37 0 0 1 2.14-0.95c1.77 0 2.71 1.36 2.71 3.47 0 2.34-1.39 3.7-2.95 3.7a3.06 3.06 0 0 1-2.03-0.86zm3.72-2.82c0-1.5-0.51-2.51-1.8-2.51a2.81 2.81 0 0 0-1.83 0.92v3.59a2.67 2.67 0 0 0 1.67 0.72c1.13 0 1.94-1.03 1.94-2.72z"/>
<path class="cls-6" d="M297.28,225.35v-5.16h1.64v5.29c0,2,.74,2.66,1.85,2.66s1.92-.67,1.92-2.66v-5.29h1.56v5.16c0,3-1.34,4.21-3.48,4.21S297.28,228.38,297.28,225.35Zm1.16-6.75a.84.84,0,1,1,.83.83A.8.8,0,0,1,298.44,218.6Zm3,0a.84.84,0,1,1,1.67,0,.8.8,0,0,1-.83.83A.81.81,0,0,1,301.44,218.6Z"/>
<path class="cls-6" d="m306.83 224.82c0-3 1.9-4.8 4.35-4.8a3.73 3.73 0 0 1 2.78 1.17l-0.87 1.05a2.49 2.49 0 0 0-1.86-0.8c-1.63 0-2.73 1.27-2.73 3.33s1 3.37 2.82 3.37a2 2 0 0 0 1.32-0.41v-2h-1.74v-1.33h3.2v4.05a4.2 4.2 0 0 1-2.94 1.1c-2.49 0.01-4.33-1.68-4.33-4.73z"/>
<path class="cls-6" d="M318.53,226l-2.75-5.78h1.74l1,2.35c.27.69.52,1.32.81,2h.06c.3-.7.58-1.33.84-2l1-2.35h1.71L320.16,226v3.42h-1.63Z"/>
<path class="cls-6" d="M325,220.19h5.56v1.38h-3.93v2.6H330v1.38h-3.35v3.84H325Z"/>
<path class="cls-6" d="M332.88,220.19h5.54v1.38h-3.91v2.35h3.31v1.37h-3.31V228h4.05v1.38h-5.68Zm1.94-1.3L337,217l.87,1.07-2.36,1.65Z"/>
<path class="cls-6" d="M341.17,220.19h1.63V228h3.83v1.38h-5.46Z"/>
<path class="cls-6" d="m348.94 220.19h1.63v4.18l3.28-4.18h1.82l-2.83 3.58 3.31 5.62h-1.81l-2.49-4.34-1.32 1.65v2.69h-1.63z"/>
<path class="cls-6" d="M363.16,226.9h-3.09l-.72,2.49h-1.66l3-9.2h1.91l3,9.2h-1.72Zm-.36-1.28-.33-1.13c-.29-1-.56-2-.83-3h-.05c-.26,1-.52,2.07-.82,3l-.32,1.13Z"/>
<path class="cls-6" d="M367.68,220.19h2.9c2,0,3.55.7,3.55,2.84s-1.51,3-3.5,3h-1.32v3.38h-1.63Zm2.82,4.51c1.37,0,2-.55,2-1.67s-.72-1.53-2.08-1.53h-1.14v3.2Z"/>
<path class="cls-6" d="m376.49 225.35v-5.16h1.63v5.29c0 2 0.75 2.66 1.86 2.66s1.91-0.67 1.91-2.66v-5.29h1.56v5.16c0 3-1.33 4.21-3.47 4.21s-3.49-1.18-3.49-4.21z"/>
<path class="cls-2" d="M309.85,243.33h-1.22v2.47h-1.1v-2.47h-4v-.76l3.84-5.74h1.3v5.57h1.22Zm-2.32-.93v-2.6c0-.48,0-1.26.07-1.73h-.06c-.22.43-.48.83-.73,1.26l-2.1,3.07Z"/>
<path class="cls-2" d="M311,245.1a.84.84,0,1,1,1.68,0,.84.84,0,1,1-1.68,0Z"/>
<path class="cls-2" d="M320,243.33h-1.22v2.47h-1.1v-2.47h-4v-.76l3.84-5.74h1.3v5.57H320Zm-2.32-.93v-2.6c0-.48,0-1.26.07-1.73h-.06c-.22.43-.48.83-.73,1.26l-2.09,3.07Z"/>
<path class="cls-2" d="m321.21 241.29c0-3 1.08-4.63 2.88-4.63s2.87 1.62 2.87 4.63-1.08 4.68-2.87 4.68-2.88-1.67-2.88-4.68zm4.63 0c0-2.63-0.71-3.7-1.75-3.7s-1.76 1.07-1.76 3.7 0.67 3.71 1.76 3.71 1.75-1.08 1.75-3.71z"/>
<path class="cls-2" d="m328.39 241.29c0-3 1.08-4.63 2.88-4.63s2.87 1.62 2.87 4.63-1.08 4.68-2.87 4.68-2.88-1.67-2.88-4.68zm4.63 0c0-2.63-0.71-3.7-1.75-3.7s-1.76 1.07-1.76 3.7 0.71 3.75 1.76 3.75 1.73-1.12 1.73-3.75z"/>
<path class="cls-2" d="M335.51,245.1a.84.84,0,1,1,1.67,0,.84.84,0,1,1-1.67,0Z"/>
<path class="cls-2" d="m338.53 241.29c0-3 1.09-4.63 2.89-4.63s2.87 1.62 2.87 4.63-1.09 4.71-2.87 4.71-2.89-1.7-2.89-4.71zm4.63 0c0-2.63-0.7-3.7-1.74-3.7s-1.76 1.07-1.76 3.7 0.7 3.75 1.76 3.75 1.74-1.12 1.74-3.75z"/>
<path class="cls-2" d="m345.71 241.29c0-3 1.08-4.63 2.88-4.63s2.87 1.62 2.87 4.63-1.08 4.68-2.87 4.68-2.88-1.67-2.88-4.68zm4.63 0c0-2.63-0.71-3.7-1.75-3.7s-1.76 1.07-1.76 3.7 0.71 3.75 1.76 3.75 1.75-1.12 1.75-3.75z"/>
<path class="cls-2" d="m352.89 241.29c0-3 1.08-4.63 2.88-4.63s2.87 1.62 2.87 4.63-1.08 4.68-2.87 4.68-2.88-1.67-2.88-4.68zm4.62 0c0-2.63-0.7-3.7-1.74-3.7s-1.76 1.07-1.76 3.7 0.7 3.75 1.76 3.75 1.74-1.12 1.74-3.75z"/>
<path class="cls-2" d="m362.74 242.4c0-2.22 1.4-3.6 3-3.6a2.81 2.81 0 0 1 1.92 0.79l-0.06-1.17v-2.63h1.17v10h-1l-0.1-0.8a3.06 3.06 0 0 1-2.07 1c-1.75 0.01-2.86-1.31-2.86-3.59zm4.82 1.66v-3.57a2.4 2.4 0 0 0-1.66-0.72c-1.1 0-2 1-2 2.62s0.69 2.61 1.89 2.61a2.31 2.31 0 0 0 1.77-0.94z"/>
<path class="cls-2" d="m371.93 245.1-0.1 0.7h-0.93v-10h1.1v2.73 1.23a3.37 3.37 0 0 1 2.13-0.95c1.78 0 2.72 1.36 2.72 3.47 0 2.34-1.39 3.7-3 3.7a3 3 0 0 1-1.92-0.88zm3.71-2.81c0-1.51-0.5-2.52-1.8-2.52a2.82 2.82 0 0 0-1.83 0.93v3.58a2.71 2.71 0 0 0 1.68 0.72c1.12 0 1.95-1 1.95-2.71z"/>
<rect class="cls-3" x="921.49" y="66.54" width="172.43" height="172.84" rx="6.65"/>
<path class="cls-6" d="m993.87 172.09c0-4 2.29-6.27 5.67-6.27s5.66 2.27 5.66 6.27-2.29 6.38-5.66 6.38-5.67-2.36-5.67-6.38zm2.06-8.33a1.47 1.47 0 1 1 1.47 1.46 1.42 1.42 0 0 1-1.47-1.46zm6 8.33c0-2.21-0.9-3.49-2.36-3.49s-2.37 1.28-2.37 3.49 0.9 3.6 2.37 3.6 2.33-1.39 2.33-3.6zm-1.69-8.33a1.47 1.47 0 1 1 1.46 1.46 1.42 1.42 0 0 1-1.49-1.46z"/>
<path class="cls-6" d="M1009.23,166.05h3.3l2.7,5.44,1.17,2.74h.07a43.72,43.72,0,0,1-.41-4.65v-3.53h3.08v12.2h-3.31l-2.7-5.47-1.16-2.72h-.08a45.84,45.84,0,0,1,.42,4.66v3.53h-3.08Z"/>
<path class="cls-6" d="M945.83,197.83l1.84-2.21a5,5,0,0,0,2.85,1.18c1,0,1.39-.32,1.39-.86s-.62-.77-1.65-1.19l-1.52-.63a3.61,3.61,0,0,1-2.46-3.4c0-2.08,1.88-3.79,4.54-3.79a5.87,5.87,0,0,1,4.06,1.63l-1.62,2a4,4,0,0,0-2.44-.88c-.79,0-1.28.28-1.28.82s.7.79,1.81,1.22l1.48.58a3.35,3.35,0,0,1,2.38,3.34c0,2.07-1.72,3.91-4.76,3.91A7.08,7.08,0,0,1,945.83,197.83Z"/>
<path class="cls-6" d="m958.32 197.4 5-7.54h-4.5v-2.71h8.48v1.95l-5 7.55h5v2.7h-9z"/>
<path class="cls-6" d="m971.28 187.15h7.89v2.71h-4.66v1.91h4v2.7h-4v2.18h4.84v2.7h-8.07z"/>
<path class="cls-6" d="M990.18,199.35l-2.1-4.09h-1.24v4.09h-3.23v-12.2h4.62c2.63,0,4.88.9,4.88,3.94a3.75,3.75,0,0,1-2,3.53l2.65,4.73Zm-3.34-6.64H988c1.28,0,2-.56,2-1.62s-.68-1.38-2-1.38h-1.16Z"/>
<path class="cls-6" d="M995.75,187.15h3.41l1.28,5.33c.34,1.3.56,2.56.9,3.87h.08c.33-1.31.58-2.57.9-3.87l1.23-5.33h3.31l-3.61,12.2h-3.9Z"/>
<path class="cls-6" d="m1010.1 187.15h7.9v2.71h-4.65v1.91h4v2.7h-4v2.18h4.84v2.7h-8.07z"/>
<path class="cls-6" d="m1021.7 197.4 5-7.54h-4.5v-2.71h8.48v1.95l-5 7.55h5v2.7h-9z"/>
<path class="cls-6" d="m1034.6 187.15h7.88v2.71h-4.65v1.91h4v2.7h-4v2.18h4.84v2.7h-8.07z"/>
<path class="cls-6" d="m1049.2 189.86h-3.21v-2.71h9.68v2.71h-3.23v9.49h-3.23z"/>
<path class="cls-6" d="m1059.2 187.15h7.88v2.71h-4.66v1.91h4v2.7h-4v2.18h4.85v2.7h-8.07z"/>
<rect class="cls-7" x="970.41" y="110.52" width="74.58" height="35.67"/>
<rect class="cls-7" x="992.25" y="94.57" width="30.89" height="44.13"/>
<rect class="cls-7" x="997.81" y="99.71" width="19.77" height="4.84"/>
<rect class="cls-7" x="997.81" y="108.26" width="19.77" height="4.84"/>
<circle class="cls-7" cx="1007.7" cy="123.48" r="5.56"/>
<path class="cls-7" d="m1007.7 129a7.72 7.72 0 0 0-7.72 7.72v14.61h15.44v-14.57a7.72 7.72 0 0 0-7.72-7.76z"/>
<circle class="cls-7" cx="1023.2" cy="125.72" r="5.56"/>
<path class="cls-7" d="m1023.2 131.28a7.73 7.73 0 0 0-7.73 7.73v12.36h15.45v-12.37a7.73 7.73 0 0 0-7.72-7.72z"/>
<circle class="cls-7" cx="992.25" cy="125.72" r="5.56"/>
<path class="cls-7" d="m992.25 131.28a7.73 7.73 0 0 0-7.72 7.73v12.36h15.47v-12.37a7.73 7.73 0 0 0-7.75-7.72z"/>
<line class="cls-7" x1="975.73" x2="983.83" y1="116.64" y2="116.64"/>
<line class="cls-7" x1="975.73" x2="983.83" y1="122.41" y2="122.41"/>
<line class="cls-7" x1="975.73" x2="983.83" y1="128.18" y2="128.18"/>
<line class="cls-7" x1="1031.8" x2="1039.9" y1="116.64" y2="116.64"/>
<line class="cls-7" x1="1031.8" x2="1039.9" y1="122.41" y2="122.41"/>
<line class="cls-7" x1="1031.8" x2="1039.9" y1="128.18" y2="128.18"/>
<line class="cls-8" x1="918.36" x2="894.81" y1="152.96" y2="152.96"/>
<polygon class="cls-9" points="913.68 148.98 917.66 152.96 913.68 156.93 917.06 156.93 921.04 152.96 917.06 148.98"/>
<polygon class="cls-9" points="899.48 148.98 895.5 152.96 899.48 156.93 896.11 156.93 892.13 152.96 896.11 148.98"/>
<line class="cls-8" x1="1120.1" x2="1096.6" y1="152.96" y2="152.96"/>
<polygon class="cls-9" points="1115.5 148.98 1119.4 152.96 1115.5 156.93 1118.8 156.93 1122.8 152.96 1118.8 148.98"/>
<polygon class="cls-9" points="1101.3 148.98 1097.3 152.96 1101.3 156.93 1097.9 156.93 1093.9 152.96 1097.9 148.98"/>
<line class="cls-8" x1="698.35" x2="698.35" y1="281.88" y2="323.06"/>
<polygon class="cls-9" points="694.37 286.56 698.35 282.58 702.32 286.56 702.32 283.18 698.35 279.2 694.37 283.18"/>
<polygon class="cls-9" points="694.37 318.39 698.35 322.37 702.32 318.39 702.32 321.76 698.35 325.74 694.37 321.76"/>
<rect class="cls-3" y="119.72" width="170.17" height="66.48" rx="6.65"/>
<path class="cls-6" d="m53.43 152.21c0-4.09 2.82-6.42 5.9-6.42a5.38 5.38 0 0 1 3.79 1.62l-1.69 2.06a3 3 0 0 0-2-0.9c-1.43 0-2.66 1.31-2.66 3.53s1 3.57 2.62 3.57a3 3 0 0 0 2.22-1.06l1.69 2a5.16 5.16 0 0 1-4 1.8c-3.16 0.03-5.87-2.03-5.87-6.2z"/>
<path class="cls-6" d="m66.77 146h7.88v2.7h-4.65v1.92h4v2.7h-4v2.18h4.84v2.7h-8.07zm2.51-2 3.42-2.7 1.69 2.07-3.68 2.25z"/>
<path class="cls-6" d="m78.3 152.21c0-4.09 2.82-6.42 6.09-6.42a5.45 5.45 0 0 1 4 1.62l-1.68 2.06a3.11 3.11 0 0 0-2.18-0.9c-1.65 0-2.89 1.31-2.89 3.53s1 3.57 3.19 3.57a1.84 1.84 0 0 0 0.94-0.23v-1.69h-1.8v-2.63h4.65v5.82a6.13 6.13 0 0 1-4.13 1.5c-3.49 0-6.19-2.06-6.19-6.23z"/>
<path class="cls-6" d="M92.92,146h7.88v2.7H96.15v1.92h4v2.7h-4v2.18H101v2.7H92.92Z"/>
<path class="cls-6" d="m105.25 146h3.23v4.54h0.07l3.08-4.54h3.53l-3.64 5 4.35 7.25h-3.52l-2.71-4.69-1.16 1.65v3h-3.23z"/>
<line class="cls-8" x1="196.39" x2="172.85" y1="152.96" y2="152.96"/>
<polygon class="cls-9" points="191.72 148.98 195.7 152.96 191.72 156.93 195.1 156.93 199.07 152.96 195.1 148.98"/>
<polygon class="cls-9" points="177.52 148.98 173.54 152.96 177.52 156.93 174.14 156.93 170.17 152.96 174.14 148.98"/>
<rect class="cls-3" y="199.49" width="170.17" height="66.48" rx="6.65"/>
<path class="cls-6" d="m35.17 232.88v-6.31h3.23v6.68c0 2.18 0.56 3 1.84 3s1.88-0.79 1.88-3v-6.68h3.11v6.31c0 4.16-1.57 6.12-5 6.12s-5.06-2-5.06-6.12zm1.43-8.6a1.47 1.47 0 1 1 1.46 1.47 1.42 1.42 0 0 1-1.46-1.47zm4.28 0a1.47 1.47 0 1 1 1.46 1.47 1.42 1.42 0 0 1-1.46-1.47z"/>
<path class="cls-6" d="m49.11 232.76c0-4.09 2.82-6.41 6.08-6.41a5.5 5.5 0 0 1 4 1.61l-1.71 2.04a3.07 3.07 0 0 0-2.17-0.9c-1.66 0-2.89 1.32-2.89 3.53s1 3.57 3.19 3.57a1.81 1.81 0 0 0 0.93-0.23v-1.67h-1.8v-2.62h4.66v5.81a6.15 6.15 0 0 1-4.13 1.51c-3.42 0-6.16-2.07-6.16-6.24z"/>
<path class="cls-6" d="M65.8,234.57l-3.68-8h3.45l.9,2.55c.3.92.6,1.77.92,2.73h.08c.32-1,.64-1.81,1-2.73l.9-2.55H72.7l-3.67,8v4.2H65.8Z"/>
<path class="cls-6" d="m75.94 226.57h8v2.7h-4.78v2.33h4.06v2.7h-4.06v4.47h-3.22z"/>
<path class="cls-6" d="M87.76,226.57h7.89v2.7H91v1.92h4v2.7H91v2.18h4.84v2.7H87.76Z"/>
<path class="cls-6" d="m100.09 226.57h3.23v9.5h4.62v2.7h-7.85z"/>
<path class="cls-6" d="m111.63 226.57h7.89v2.7h-4.66v1.92h4v2.7h-4v2.18h4.84v2.7h-8.07z"/>
<path class="cls-6" d="M124,226.57h3.23v4.54h.08l3.07-4.54h3.53l-3.64,5,4.35,7.24h-3.52l-2.71-4.69-1.16,1.65v3H124Z"/>
<line class="cls-8" x1="196.39" x2="172.85" y1="232.73" y2="232.73"/>
<polygon class="cls-9" points="191.72 228.75 195.7 232.73 191.72 236.71 195.1 236.71 199.07 232.73 195.1 228.75"/>
<polygon class="cls-9" points="177.52 228.75 173.54 232.73 177.52 236.71 174.14 236.71 170.17 232.73 174.14 228.75"/>
<rect class="cls-3" y="39.94" width="170.17" height="66.48" rx="6.65"/>
<path class="cls-6" d="M30.52,67.46h3.22V72h3.64V67.46h3.23v12.2H37.38V74.81H33.74v4.85H30.52Z"/>
<path class="cls-6" d="m45.21 67.46h3.23v12.2h-3.23z"/>
<path class="cls-6" d="M51.66,67.46h3.41l1.28,5.33c.34,1.29.56,2.55.9,3.86h.08c.33-1.31.58-2.57.9-3.86l1.24-5.33h3.3l-3.6,12.2H55.26Z"/>
<path class="cls-6" d="M71.33,77.07H67.92l-.6,2.59H64l3.72-12.2h3.9l3.72,12.2H71.93Zm-.58-2.5-.2-.84c-.3-1.17-.6-2.65-.9-3.87h-.08c-.26,1.24-.56,2.7-.86,3.87l-.21.84Z"/>
<path class="cls-6" d="M80,70.16H76.72v-2.7h9.69v2.7H83.18v9.5H80Z"/>
<path class="cls-6" d="M95.1,77.07H91.69l-.61,2.59h-3.3l3.72-12.2h3.9l3.72,12.2H95.7Zm-.58-2.5-.21-.84c-.3-1.17-.6-2.65-.9-3.87h-.07c-.27,1.24-.57,2.7-.87,3.87l-.2.84Z"/>
<path class="cls-6" d="M102.36,67.46h3.23V77h4.61v2.71h-7.84Z"/>
<path class="cls-6" d="m113.33 73.5c0-4 2.29-6.27 5.67-6.27s5.67 2.27 5.67 6.27-2.29 6.38-5.67 6.38-5.67-2.36-5.67-6.38zm8 0c0-2.21-0.9-3.49-2.37-3.49s-2.36 1.28-2.36 3.49 0.9 3.6 2.36 3.6 2.41-1.38 2.41-3.6z"/>
<path class="cls-6" d="M128.7,67.46h3.22V72H132l3.08-4.54h3.53l-3.64,5,4.35,7.25h-3.53L133.09,75l-1.17,1.65v3H128.7Z"/>
<line class="cls-8" x1="196.39" x2="172.85" y1="73.18" y2="73.18"/>
<polygon class="cls-9" points="191.72 69.21 195.7 73.18 191.72 77.16 195.1 77.16 199.07 73.18 195.1 69.21"/>
<polygon class="cls-9" points="177.52 69.21 173.54 73.18 177.52 77.16 174.14 77.16 170.17 73.18 174.14 69.21"/>
<path class="cls-8" d="m894.89 347.07h92.87a20 20 0 0 0 19.94-19.94v-85.07"/>
<polygon class="cls-9" points="899.56 351.05 895.59 347.07 899.56 343.1 896.19 343.1 892.21 347.07 896.19 351.05"/>
<polygon class="cls-9" points="1011.7 246.73 1007.7 242.75 1003.7 246.73 1003.7 243.35 1007.7 239.38 1011.7 243.35"/>
<path class="cls-8" d="m894.89 367h231.58a20 20 0 0 0 19.94-19.95v-105"/>
<polygon class="cls-9" points="899.56 370.99 895.59 367.02 899.56 363.04 896.19 363.04 892.21 367.02 896.19 370.99"/>
<polygon class="cls-9" points="1150.4 246.73 1146.4 242.75 1142.4 246.73 1142.4 243.35 1146.4 239.38 1150.4 243.35"/>
<path class="cls-8" d="m894.89 29.36h231.58c11 0 19.94 8.36 19.94 18.59v15.91"/>
<polygon class="cls-9" points="899.56 33.33 895.59 29.36 899.56 25.38 896.19 25.38 892.21 29.36 896.19 33.33"/>
<polygon class="cls-9" points="1142.4 59.18 1146.4 63.16 1150.4 59.18 1150.4 62.56 1146.4 66.54 1142.4 62.56"/>
<path class="cls-6" d="m543.05 88.44a2.47 2.47 0 1 1 2.46 2.56 2.48 2.48 0 0 1-2.46-2.56z"/>
<path class="cls-4" d="M562.31,83.27H559V81.54h8.69v1.73h-3.33v9.78h-2Z"/>
<path class="cls-4" d="M570.85,81.54h6.93v1.73h-4.89V86.2H577v1.73h-4.14v3.39H578v1.73h-7.11Z"/>
<path class="cls-4" d="M581.55,81.54h2.31l2,5.63c.24.72.49,1.5.74,2.25h.07c.24-.75.47-1.53.72-2.25l2-5.63h2.32V93.05h-1.88V87.79c0-1.08.15-2.61.26-3.66h-.07l-.93,2.67L587.23,92H586l-1.9-5.17-.91-2.67h-.08c.09,1.05.27,2.58.27,3.66v5.26h-1.85Z"/>
<path class="cls-4" d="M601.53,89.93h-3.87l-.9,3.12h-2.08l3.75-11.51h2.39l3.75,11.51h-2.14Zm-.46-1.6-.4-1.4c-.37-1.22-.71-2.54-1-3.8h-.07c-.32,1.28-.65,2.58-1,3.8l-.41,1.4Z"/>
<path class="cls-4" d="m608.78 83.27h-3.33v-1.73h8.69v1.73h-3.32v9.78h-2z"/>
<path class="cls-4" d="m617.32 81.54h2v11.51h-2z"/>
<path class="cls-4" d="m622.64 91.82 5.56-8.55h-5.05v-1.73h7.58v1.23l-5.58 8.55h5.62v1.73h-8.13z"/>
<path class="cls-4" d="M640.16,89.93h-3.87l-.9,3.12h-2.08l3.75-11.51h2.39l3.75,11.51h-2.15Zm-.46-1.6-.41-1.4c-.37-1.22-.7-2.54-1-3.8h-.07c-.32,1.28-.65,2.58-1,3.8l-.41,1.4ZM638,80.94l-.89-1,2.76-2.37,1.09,1.34Z"/>
<path class="cls-4" d="M646.13,81.54h2v9.78H653v1.73h-6.83Z"/>
<path class="cls-4" d="M657.32,83.27H654V81.54h8.69v1.73h-3.32v9.78h-2Z"/>
<path class="cls-4" d="m670.88 88v-6.46h2v6.62c0 2.5 0.93 3.32 2.32 3.32s2.39-0.82 2.39-3.32v-6.62h2v6.46c0 3.78-1.67 5.26-4.34 5.26s-4.37-1.48-4.37-5.26zm1.44-8.45a1 1 0 0 1 1-1 1 1 0 1 1 0 2.09 1 1 0 0 1-1-1.09zm3.75 0a1 1 0 1 1 2.09 0 1 1 0 0 1-2.09 0z"/>
<path class="cls-4" d="m682.62 91.82 5.56-8.55h-5v-1.73h7.58v1.23l-5.58 8.55h5.62v1.73h-8.13z"/>
<path class="cls-4" d="M694.11,81.54H701v1.73h-4.89V86.2h4.13v1.73h-4.13v3.39h5.07v1.73h-7.11Z"/>
<path class="cls-4" d="M704.81,81.54h2.09L710.49,88l1.18,2.44h.07c-.09-1.18-.26-2.64-.26-3.92v-5h1.95V93.05h-2.1l-3.58-6.48-1.18-2.44h-.07c.08,1.21.26,2.6.26,3.89v5h-2Z"/>
<path class="cls-4" d="m717.66 81.54h6.93v1.73h-4.89v2.93h4.14v1.73h-4.14v3.39h5.07v1.73h-7.11z"/>
<path class="cls-4" d="m730.9 83.27h-3.32v-1.73h8.69v1.73h-3.33v9.78h-2z"/>
<path class="cls-4" d="m739.44 81.54h6.93v1.73h-4.89v2.93h4.14v1.73h-4.14v3.39h5.07v1.73h-7.11z"/>
<path class="cls-4" d="M750.14,81.54h2v5.23h.06l4.09-5.23h2.27L755.07,86l4.13,7H757l-3.11-5.42-1.66,2.06v3.36h-2Z"/>
<path class="cls-6" d="m543.05 114.24a2.47 2.47 0 1 1 2.46 2.56 2.47 2.47 0 0 1-2.46-2.56z"/>
<path class="cls-4" d="M565.34,115.73h-3.87l-.9,3.11h-2.08l3.75-11.5h2.39l3.75,11.5h-2.15Zm-.46-1.6-.41-1.41c-.37-1.21-.7-2.53-1-3.8h-.07c-.32,1.29-.66,2.59-1,3.8l-.41,1.41Z"/>
<path class="cls-4" d="m570.87 113.8v-6.46h2v6.66c0 2.5 0.93 3.33 2.32 3.33s2.4-0.83 2.4-3.33v-6.61h2v6.46c0 3.78-1.67 5.26-4.35 5.26s-4.37-1.53-4.37-5.31z"/>
<path class="cls-4" d="m586.06 109.06h-3.32v-1.72h8.69v1.72h-3.33v9.78h-2z"/>
<path class="cls-4" d="m593.85 113c0-3.71 2.08-5.91 5.07-5.91s5.08 2.24 5.08 5.91-2.07 6-5.08 6-5.07-2.23-5.07-6zm8 0c0-2.57-1.16-4.14-3-4.14s-3 1.57-3 4.14 1.16 4.24 3 4.24 3.04-1.61 3.04-4.24z"/>
<path class="cls-4" d="M607.68,107.34H610l2,5.63c.25.72.49,1.49.74,2.25h.07c.25-.76.48-1.53.72-2.25l2-5.63h2.32v11.5H616v-5.26c0-1.07.16-2.6.26-3.66h-.07l-.93,2.68-1.88,5.17h-1.22l-1.89-5.17-.92-2.68h-.07c.09,1.06.26,2.59.26,3.66v5.26h-1.84Z"/>
<path class="cls-4" d="M627.65,115.73h-3.87l-.89,3.11h-2.08l3.75-11.5H627l3.75,11.5h-2.15Zm-.45-1.6-.41-1.41c-.37-1.21-.7-2.53-1-3.8h-.07c-.31,1.29-.65,2.59-1,3.8l-.4,1.41Z"/>
<path class="cls-4" d="m634.9 109.06h-3.32v-1.72h8.69v1.72h-3.33v9.78h-2z"/>
<path class="cls-4" d="m643.44 107.34h2v11.5h-2z"/>
<path class="cls-4" d="m649.69 107.34h2v5.22l4.1-5.22h2.27l-3.54 4.49 4.14 7h-2.16l-3.12-5.41-1.65 2v3.36h-2z"/>
<path class="cls-4" d="m661.36 113.8v-6.46h2v6.66c0 2.5 0.93 3.33 2.32 3.33s2.39-0.83 2.39-3.33v-6.61h2v6.46c0 3.78-1.68 5.26-4.35 5.26s-4.36-1.53-4.36-5.31z"/>
<path class="cls-4" d="M673.23,117.37l1.2-1.39a4.57,4.57,0,0,0,3,1.3c1.3,0,2-.58,2-1.48s-.73-1.25-1.77-1.69l-1.59-.68a3.34,3.34,0,0,1-2.32-3.07c0-1.82,1.62-3.23,3.87-3.23a5.08,5.08,0,0,1,3.54,1.46l-1,1.3a3.73,3.73,0,0,0-2.5-1c-1.09,0-1.81.51-1.81,1.36s.88,1.23,1.83,1.62l1.57.65a3.22,3.22,0,0,1,2.32,3.11c0,1.87-1.55,3.42-4.14,3.42A6,6,0,0,1,673.23,117.37Z"/>
<path class="cls-4" d="M689.15,117.37l1.2-1.39a4.57,4.57,0,0,0,3,1.3c1.3,0,2-.58,2-1.48s-.74-1.25-1.77-1.69l-1.59-.68a3.34,3.34,0,0,1-2.32-3.07c0-1.82,1.62-3.23,3.87-3.23a5.08,5.08,0,0,1,3.54,1.46l-1,1.3a3.73,3.73,0,0,0-2.5-1c-1.09,0-1.81.51-1.81,1.36s.88,1.23,1.83,1.62l1.56.65a3.22,3.22,0,0,1,2.33,3.11c0,1.87-1.55,3.42-4.14,3.42A6,6,0,0,1,689.15,117.37Z"/>
<path class="cls-4" d="m700.1 117.61 5.56-8.55h-5v-1.72h7.58v1.23l-5.57 8.55h5.61v1.72h-8.18z"/>
<path class="cls-4" d="m710.7 113c0-3.71 2.07-5.91 5.06-5.91s5.09 2.2 5.09 5.91-2.08 6-5.09 6-5.06-2.23-5.06-6zm8 0c0-2.57-1.16-4.14-3-4.14s-3 1.57-3 4.14 1.16 4.24 3 4.24 3.04-1.61 3.04-4.24z"/>
<path class="cls-4" d="M730.8,118.84l-2.48-4.5h-1.76v4.5h-2v-11.5h3.89c2.39,0,4.22.84,4.22,3.41a3.21,3.21,0,0,1-2.29,3.29l2.75,4.8Zm-4.24-6.12h1.64c1.56,0,2.43-.67,2.43-2s-.87-1.78-2.43-1.78h-1.64Z"/>
<path class="cls-4" d="m738.72 109.06h-3.33v-1.72h8.69v1.72h-3.32v9.78h-2z"/>
<path class="cls-4" d="M747.14,105.72l2.76-2.38,1.09,1.34-3,2.06Zm.12,1.62h2v11.5h-2Z"/>
<path class="cls-4" d="M759.8,118.84l-2.48-4.5h-1.76v4.5h-2v-11.5h3.88c2.4,0,4.23.84,4.23,3.41a3.22,3.22,0,0,1-2.29,3.29l2.74,4.8Zm-4.24-6.12h1.63c1.57,0,2.43-.67,2.43-2s-.86-1.78-2.43-1.78h-1.63Z"/>
<path class="cls-4" d="m764.64 113c0-3.71 2.07-5.91 5.06-5.91s5.09 2.2 5.09 5.91-2.08 6-5.09 6-5.06-2.23-5.06-6zm8 0c0-2.57-1.17-4.14-3-4.14s-3 1.57-3 4.14 1.16 4.24 3 4.24 3.04-1.61 3.04-4.24z"/>
<path class="cls-4" d="m777.19 117.61 5.56-8.55h-5v-1.72h7.58v1.23l-5.57 8.55h5.61v1.72h-8.13z"/>
<path class="cls-4" d="M794.71,115.73h-3.87l-.9,3.11h-2.08l3.75-11.5H794l3.75,11.5h-2.14Zm-.46-1.6-.4-1.41c-.37-1.21-.71-2.53-1-3.8h-.07c-.32,1.29-.65,2.59-1,3.8l-.41,1.41Zm-1.72-7.39-.9-1,2.76-2.38,1.09,1.34Z"/>
<path class="cls-4" d="M800.09,117.37l1.2-1.39a4.61,4.61,0,0,0,3,1.3c1.3,0,2-.58,2-1.48s-.74-1.25-1.78-1.69l-1.58-.68a3.33,3.33,0,0,1-2.33-3.07c0-1.82,1.62-3.23,3.87-3.23a5.08,5.08,0,0,1,3.54,1.46l-1,1.3a3.73,3.73,0,0,0-2.5-1c-1.09,0-1.81.51-1.81,1.36s.88,1.23,1.83,1.62l1.57.65a3.22,3.22,0,0,1,2.32,3.11c0,1.87-1.55,3.42-4.13,3.42A6,6,0,0,1,800.09,117.37Z"/>
<path class="cls-6" d="m543.05 140a2.47 2.47 0 1 1 2.46 2.57 2.48 2.48 0 0 1-2.46-2.57z"/>
<path class="cls-4" d="m560 133.14h2v5.22h0.05l4.1-5.22h2.27l-3.54 4.48 4.14 7h-2.22l-3.12-5.42-1.68 2.08v3.36h-2z"/>
<path class="cls-4" d="m570.83 138.84c0-3.72 2.08-5.92 5.07-5.92s5.08 2.2 5.08 5.92-2.07 6-5.08 6-5.07-2.27-5.07-6zm8 0c0-2.57-1.16-4.14-3-4.14s-3 1.57-3 4.14 1.16 4.24 3 4.24 3.04-1.66 3.04-4.24zm-5.83-7.69a1 1 0 0 1 1-1.06 1.05 1.05 0 1 1 0 2.1 1 1 0 0 1-1-1.04zm3.75 0a1 1 0 0 1 1-1.06 1.05 1.05 0 1 1-1 1.06z"/>
<path class="cls-4" d="m586.73 134.86h-3.32v-1.72h8.69v1.72h-3.33v9.78h-2z"/>
<path class="cls-4" d="m595.27 133.14h6.94v1.72h-4.89v2.94h4.13v1.72h-4.13v3.4h5.06v1.72h-7.11z"/>
<path class="cls-4" d="M606,133.14h2v9.78h4.78v1.72H606Z"/>
<path class="cls-4" d="m616 133.14h7v1.72h-4.89v2.94h4.13v1.72h-4.13v3.4h5.07v1.72h-7.18z"/>
<path class="cls-4" d="m626.14 143.41 5.56-8.55h-5.05v-1.72h7.59v1.23l-5.58 8.55h5.61v1.72h-8.13z"/>
<path class="cls-4" d="m636.74 138.84c0-3.72 2.08-5.92 5.07-5.92s5.08 2.2 5.08 5.92-2.08 6-5.08 6-5.07-2.27-5.07-6zm8 0c0-2.57-1.16-4.14-3-4.14s-3 1.57-3 4.14 1.16 4.24 3 4.24 3.04-1.66 3.04-4.24zm-3.36-9.73 1.32 0.75-2 2.5-1-0.49zm3.06 0 1.32 0.75-2 2.5-1-0.49z"/>
<path class="cls-4" d="m655.52 133.14h6.94v1.72h-4.9v2.94h4.14v1.72h-4.14v3.4h5.07v1.72h-7.11zm2.43-1.62 2.76-2.38 1.09 1.34-2.95 2.06z"/>
<path class="cls-4" d="M665.63,143.16l1.2-1.39a4.55,4.55,0,0,0,3,1.31c1.3,0,2-.58,2-1.48s-.74-1.25-1.78-1.69l-1.59-.69a3.31,3.31,0,0,1-2.32-3.06c0-1.83,1.62-3.24,3.87-3.24a5.12,5.12,0,0,1,3.54,1.46l-1,1.31a3.73,3.73,0,0,0-2.5-1c-1.09,0-1.81.51-1.81,1.36s.88,1.23,1.83,1.61l1.57.66a3.22,3.22,0,0,1,2.32,3.11c0,1.86-1.55,3.41-4.14,3.41A5.94,5.94,0,0,1,665.63,143.16Z"/>
<path class="cls-4" d="M682.34,133.14H686c2.55,0,4.45.88,4.45,3.55s-1.9,3.73-4.38,3.73h-1.66v4.22h-2Zm3.54,5.64c1.7,0,2.53-.68,2.53-2.09s-.9-1.92-2.6-1.92h-1.43v4Z"/>
<path class="cls-4" d="m693.36 138.84c0-3.72 2.08-5.92 5.07-5.92s5.09 2.2 5.09 5.92-2.08 6-5.09 6-5.07-2.27-5.07-6zm8 0c0-2.57-1.16-4.14-3-4.14s-3 1.57-3 4.14 1.16 4.24 3 4.24 3.04-1.66 3.04-4.24z"/>
<path class="cls-4" d="M707.19,133.14h2.09l3.59,6.47,1.18,2.45h.07c-.09-1.18-.26-2.64-.26-3.93v-5h1.95v11.5h-2.09l-3.59-6.47L709,135.72h-.07c.09,1.22.26,2.61.26,3.89v5h-1.95Z"/>
<path class="cls-4" d="M722.32,134.86H719v-1.72h8.69v1.72h-3.32v9.78h-2Z"/>
<path class="cls-4" d="m730.11 138.84c0-3.72 2.07-5.92 5.06-5.92s5.09 2.2 5.09 5.92-2.08 6-5.09 6-5.06-2.27-5.06-6zm8 0c0-2.57-1.16-4.14-3-4.14s-3 1.57-3 4.14 1.16 4.24 3 4.24 3.04-1.66 3.04-4.24z"/>
<path class="cls-4" d="M742.89,143.16l1.19-1.39a4.57,4.57,0,0,0,3,1.31c1.31,0,2-.58,2-1.48s-.74-1.25-1.78-1.69l-1.58-.69a3.3,3.3,0,0,1-2.32-3.06c0-1.83,1.61-3.24,3.87-3.24a5.1,5.1,0,0,1,3.53,1.46l-1,1.31a3.75,3.75,0,0,0-2.5-1c-1.09,0-1.81.51-1.81,1.36s.87,1.23,1.83,1.61l1.56.66a3.21,3.21,0,0,1,2.32,3.11c0,1.86-1.54,3.41-4.13,3.41A5.92,5.92,0,0,1,742.89,143.16Z"/>
<path class="cls-4" d="M764.94,141.53h-3.87l-.89,3.11H758.1l3.75-11.5h2.39l3.75,11.5h-2.15Zm-.45-1.6-.41-1.41c-.37-1.21-.7-2.53-1-3.8H763c-.31,1.28-.65,2.59-1,3.8l-.4,1.41Zm-1.73-7.39-.89-1,2.76-2.38,1.09,1.34Z"/>
<path class="cls-4" d="m772.19 134.86h-3.32v-1.72h8.69v1.72h-3.33v9.78h-2z"/>
<path class="cls-4" d="M780,133.14h2.17l1.62,5.78c.37,1.31.63,2.43,1,3.75h.07c.39-1.32.65-2.44,1-3.75l1.6-5.78h2.09L786,144.64h-2.41Z"/>
<path class="cls-4" d="m792.47 133.14h6.93v1.72h-4.89v2.94h4.13v1.72h-4.13v3.4h5.07v1.72h-7.11zm2.42-1.62 2.77-2.38 1.09 1.34-3 2.06z"/>
<path class="cls-4" d="m805.71 134.86h-3.33v-1.72h8.69v1.72h-3.32v9.78h-2z"/>
<path class="cls-4" d="m814.25 133.14h6.93v1.72h-4.89v2.94h4.13v1.72h-4.13v3.4h5.07v1.72h-7.11z"/>
<path class="cls-4" d="M825,133.14h2v9.78h4.78v1.72H825Z"/>
<path class="cls-6" d="m543.05 165.83a2.47 2.47 0 1 1 2.46 2.57 2.48 2.48 0 0 1-2.46-2.57z"/>
<path class="cls-4" d="M562.31,160.66H559v-1.73h8.69v1.73h-3.33v9.78h-2Z"/>
<path class="cls-4" d="M570.85,158.93h6.93v1.73h-4.89v2.93H577v1.73h-4.14v3.39H578v1.73h-7.11Zm2.43-1.62,2.76-2.37,1.09,1.34-3,2.05Z"/>
<path class="cls-4" d="M587.83,170.44l-2.48-4.51h-1.76v4.51h-2V158.93h3.89c2.39,0,4.22.85,4.22,3.42a3.23,3.23,0,0,1-2.28,3.29l2.74,4.8Zm-4.24-6.12h1.64c1.56,0,2.43-.67,2.43-2s-.87-1.78-2.43-1.78h-1.64Z"/>
<path class="cls-4" d="m595.75 160.66h-3.33v-1.73h8.7v1.73h-3.33v9.78h-2z"/>
<path class="cls-4" d="m604.29 158.93h2v11.51h-2z"/>
<path class="cls-4" d="M609.24,158.93h2.16l1.62,5.79c.37,1.3.63,2.43,1,3.75h.07c.39-1.32.65-2.45,1-3.75l1.6-5.79h2.1l-3.57,11.51h-2.41Z"/>
<path class="cls-4" d="m621.72 158.93h6.93v1.73h-4.89v2.93h4.13v1.73h-4.13v3.39h5.07v1.73h-7.11z"/>
<path class="cls-4" d="M631.38,158.93h2.17l1.61,5.79c.37,1.3.64,2.43,1,3.75h.07c.39-1.32.66-2.45,1-3.75l1.6-5.79H641l-3.57,11.51H635Z"/>
<path class="cls-4" d="M643.86,158.93h6.94v1.73h-4.89v2.93H650v1.73h-4.13v3.39H651v1.73h-7.11Zm2.43-1.62,2.76-2.37,1.1,1.34-3,2.05Z"/>
<path class="cls-4" d="M654.57,158.93h2.09l3.59,6.48,1.18,2.44h.07c-.09-1.18-.27-2.64-.27-3.92v-5h2v11.51h-2.1L657.5,164l-1.17-2.44h-.08c.09,1.21.27,2.6.27,3.89v5h-1.95Z"/>
<path class="cls-4" d="M669.56,166.16l-3.44-7.23h2.18l1.25,2.94c.33.86.65,1.65,1,2.53h.07c.37-.88.72-1.67,1.05-2.53l1.25-2.94h2.13l-3.47,7.23v4.28h-2Z"/>
<path class="cls-4" d="M678,158.93h6.93v1.73H680v2.93h4.14v1.73H680v3.39h5.07v1.73H678Z"/>
<path class="cls-4" d="M688.09,169l1.2-1.39a4.57,4.57,0,0,0,3,1.3c1.3,0,2-.58,2-1.47s-.74-1.25-1.77-1.69l-1.59-.69A3.32,3.32,0,0,1,688.6,162c0-1.83,1.62-3.24,3.87-3.24a5.08,5.08,0,0,1,3.54,1.46l-1,1.3a3.77,3.77,0,0,0-2.5-1c-1.09,0-1.81.51-1.81,1.35s.88,1.23,1.83,1.62l1.57.65a3.22,3.22,0,0,1,2.32,3.12c0,1.86-1.55,3.41-4.14,3.41A6,6,0,0,1,688.09,169Z"/>
<path class="cls-4" d="m704.8 158.93h2v9.78h4.79v1.73h-6.79z"/>
<path class="cls-4" d="M714.84,158.93h6.94v1.73h-4.9v2.93H721v1.73h-4.14v3.39H722v1.73h-7.11Z"/>
<path class="cls-4" d="M724.51,158.93h2.16l1.62,5.79c.37,1.3.63,2.43,1,3.75h.07c.39-1.32.65-2.45,1-3.75l1.6-5.79h2.1l-3.57,11.51H728.1Z"/>
<path class="cls-4" d="M737,158.93h6.93v1.73H739v2.93h4.14v1.73H739v3.39h5.07v1.73H737Z"/>
<path class="cls-4" d="m747.69 158.93h2v9.78h4.79v1.73h-6.83z"/>
<path class="cls-4" d="m757.73 158.93h6.94v1.73h-4.9v2.93h4.14v1.73h-4.14v3.39h5.07v1.73h-7.11z"/>
<path class="cls-4" d="m768.43 158.93h2.05v5.23l4.1-5.23h2.27l-3.54 4.49 4.14 7h-2.26l-3.06-5.42-1.65 2.06v3.36h-2.05z"/>
<path class="cls-6" d="m543.05 191.63a2.47 2.47 0 1 1 2.46 2.56 2.47 2.47 0 0 1-2.46-2.56z"/>
<path class="cls-4" d="M560,184.73h2.09l3.59,6.47,1.18,2.45h.07c-.09-1.18-.26-2.64-.26-3.92v-5h2v11.51h-2.09l-3.59-6.48-1.18-2.44h-.07c.09,1.21.26,2.6.26,3.88v5h-2Z"/>
<path class="cls-4" d="M578.4,193.12h-3.87l-.9,3.12h-2.07l3.74-11.51h2.4l3.74,11.51H579.3Zm-.46-1.6-.4-1.41c-.37-1.21-.71-2.53-1-3.8h-.07c-.32,1.29-.65,2.59-1,3.8l-.41,1.41Z"/>
<path class="cls-4" d="M584.37,184.73H588c2.55,0,4.45.88,4.45,3.55s-1.9,3.73-4.38,3.73h-1.66v4.23h-2Zm3.54,5.65c1.71,0,2.53-.69,2.53-2.1s-.89-1.91-2.6-1.91h-1.43v4Z"/>
<path class="cls-4" d="m595.74 184.73h2v9.78h4.78v1.73h-6.83z"/>
<path class="cls-4" d="m605 190.43c0-3.71 2.07-5.91 5.06-5.91s5.09 2.2 5.09 5.91-2.08 6-5.09 6-5.06-2.27-5.06-6zm8 0c0-2.57-1.16-4.14-3-4.14s-3 1.57-3 4.14 1.16 4.24 3 4.24 3-1.67 3-4.24zm-4.12-7.32 2.76-2.37 1.09 1.33-3 2.06z"/>
<path class="cls-4" d="M617.53,195l5.56-8.55H618v-1.72h7.58V186l-5.57,8.55h5.61v1.73h-8.13Z"/>
<path class="cls-4" d="M635.05,193.12h-3.87l-.9,3.12h-2.07L632,184.73h2.39l3.75,11.51H636Zm-.46-1.6-.4-1.41c-.37-1.21-.71-2.53-1-3.8h-.07c-.32,1.29-.65,2.59-1,3.8l-.41,1.41Zm-1.72-7.39-.9-1,2.76-2.37,1.09,1.33Z"/>
<path class="cls-4" d="M640.44,194.76l1.19-1.39a4.61,4.61,0,0,0,3,1.3c1.3,0,2-.58,2-1.48s-.74-1.25-1.78-1.69l-1.58-.68a3.32,3.32,0,0,1-2.32-3.06c0-1.83,1.61-3.24,3.87-3.24a5.05,5.05,0,0,1,3.53,1.46l-1,1.3a3.71,3.71,0,0,0-2.49-1c-1.09,0-1.82.52-1.82,1.36s.88,1.23,1.83,1.62l1.57.65a3.22,3.22,0,0,1,2.32,3.11c0,1.87-1.55,3.42-4.13,3.42A6,6,0,0,1,640.44,194.76Z"/>
<path class="cls-4" d="m657.14 184.73h6.94v1.72h-4.9v2.94h4.14v1.73h-4.14v3.39h5.07v1.73h-7.11zm2.43-1.62 2.76-2.37 1.09 1.33-2.95 2.06z"/>
<path class="cls-4" d="M667.25,194.76l1.2-1.39a4.59,4.59,0,0,0,3,1.3c1.3,0,2-.58,2-1.48s-.74-1.25-1.78-1.69l-1.59-.68a3.33,3.33,0,0,1-2.32-3.06c0-1.83,1.62-3.24,3.87-3.24a5.08,5.08,0,0,1,3.54,1.46l-1,1.3a3.73,3.73,0,0,0-2.5-1c-1.09,0-1.81.52-1.81,1.36s.88,1.23,1.83,1.62l1.57.65a3.22,3.22,0,0,1,2.32,3.11c0,1.87-1.55,3.42-4.14,3.42A6,6,0,0,1,667.25,194.76Z"/>
<path class="cls-4" d="M684,184.73h2.1l3.58,6.47,1.18,2.45h.07c-.08-1.18-.26-2.64-.26-3.92v-5h2v11.51h-2.09l-3.59-6.48-1.18-2.44h-.07c.09,1.21.27,2.6.27,3.88v5h-2Z"/>
<path class="cls-4" d="M699,192l-3.45-7.23h2.18l1.25,2.94c.34.86.65,1.65,1,2.53H700c.37-.88.72-1.67,1.06-2.53l1.25-2.94h2.13L701,192v4.28h-2Z"/>
<path class="cls-4" d="m706.23 190.43c0-3.71 2.08-5.91 5.07-5.91s5.08 2.2 5.08 5.91-2.07 6-5.08 6-5.07-2.27-5.07-6zm8 0c0-2.57-1.16-4.14-3-4.14s-3 1.57-3 4.14 1.16 4.24 3 4.24 3.04-1.67 3.04-4.24z"/>
<path class="cls-4" d="M720.06,184.73h2.3l2,5.63c.25.72.5,1.49.74,2.25h.07c.25-.76.48-1.53.72-2.25l2-5.63h2.32v11.51h-1.88V191c0-1.08.16-2.61.27-3.66h-.08l-.93,2.67-1.88,5.17h-1.21l-1.9-5.17-.92-2.67h-.07c.09,1.05.26,2.58.26,3.66v5.26h-1.84Z"/>
<path class="cls-4" d="m733.93 190.43c0-3.71 2.07-5.91 5.06-5.91s5.09 2.2 5.09 5.91-2.08 6-5.09 6-5.06-2.27-5.06-6zm8 0c0-2.57-1.17-4.14-3-4.14s-3 1.57-3 4.14 1.16 4.24 3 4.24 3.07-1.67 3.07-4.24z"/>
<path class="cls-4" d="M747.75,184.73h2.09l3.59,6.47,1.18,2.45h.07c-.09-1.18-.26-2.64-.26-3.92v-5h2v11.51h-2.09l-3.59-6.48-1.18-2.44h-.07c.09,1.21.26,2.6.26,3.88v5h-2Z"/>
<path class="cls-4" d="M765.62,184.73h2V190h.05l4.1-5.22h2.27l-3.53,4.49,4.13,7h-2.25l-3.11-5.42-1.66,2.06v3.36h-2Z"/>
<path class="cls-4" d="m776.47 190.43c0-3.71 2.07-5.91 5.06-5.91s5.09 2.2 5.09 5.91-2.08 6-5.09 6-5.06-2.27-5.06-6zm8 0c0-2.57-1.17-4.14-3-4.14s-3 1.57-3 4.14 1.16 4.24 3 4.24 3.04-1.67 3.04-4.24zm-5.9-7.69a1 1 0 0 1 1-1.05 1 1 0 1 1 0 2.09 1 1 0 0 1-0.96-1.04zm3.75 0a1 1 0 0 1 1.06-1.05 1 1 0 0 1 0 2.09 1 1 0 0 1-1.02-1.04z"/>
<path class="cls-4" d="M788.59,184.73h2.17l1.62,5.79c.37,1.3.63,2.43,1,3.74h.07c.38-1.31.65-2.44,1-3.74l1.6-5.79h2.09l-3.57,11.51h-2.41Z"/>
<path class="cls-4" d="M801.08,184.73H808v1.72h-4.89v2.94h4.13v1.73h-4.13v3.39h5.07v1.73h-7.11Z"/>
<path class="cls-4" d="M814.32,186.45H811v-1.72h8.69v1.72h-3.32v9.79h-2Z"/>
<path class="cls-4" d="m822.86 184.73h6.93v1.72h-4.89v2.94h4.1v1.73h-4.1v3.39h5.1v1.73h-7.1zm2.42-1.62 2.77-2.37 1.09 1.33-3 2.06z"/>
<path class="cls-4" d="M833,194.76l1.19-1.39a4.61,4.61,0,0,0,3,1.3c1.3,0,2-.58,2-1.48s-.74-1.25-1.78-1.69l-1.58-.68a3.32,3.32,0,0,1-2.32-3.06c0-1.83,1.61-3.24,3.87-3.24a5.05,5.05,0,0,1,3.53,1.46l-1,1.3a3.71,3.71,0,0,0-2.49-1c-1.09,0-1.82.52-1.82,1.36s.88,1.23,1.83,1.62l1.57.65a3.22,3.22,0,0,1,2.32,3.11c0,1.87-1.55,3.42-4.13,3.42A6,6,0,0,1,833,194.76Z"/>
<path class="cls-6" d="m543.05 217.42a2.47 2.47 0 1 1 2.46 2.57 2.48 2.48 0 0 1-2.46-2.57z"/>
<path class="cls-4" d="m559 220.29 1.41-1a2 2 0 0 0 1.79 1.22c1.08 0 1.62-0.58 1.62-2.22v-7.72h2v7.9c0 2.09-1 3.81-3.43 3.81a3.64 3.64 0 0 1-3.39-1.99z"/>
<path class="cls-4" d="m569.39 216.23c0-3.72 2.07-5.92 5.06-5.92s5.09 2.2 5.09 5.92-2.08 6-5.09 6-5.06-2.23-5.06-6zm8 0c0-2.57-1.17-4.14-3-4.14s-3 1.57-3 4.14 1.16 4.24 3 4.24 3.04-1.66 3.04-4.24z"/>
<path class="cls-4" d="m582.61 216.31c0-3.76 2.38-6 5.44-6a4.72 4.72 0 0 1 3.48 1.47l-1.09 1.31a3.12 3.12 0 0 0-2.32-1c-2 0-3.41 1.59-3.41 4.17s1.21 4.21 3.52 4.21a2.56 2.56 0 0 0 1.65-0.51v-2.48h-2.18v-1.68h4v5.07a5.24 5.24 0 0 1-3.68 1.37c-3.1 0-5.41-2.11-5.41-5.93z"/>
<path class="cls-4" d="m595 216.23c0-3.72 2.07-5.92 5.06-5.92s5.09 2.2 5.09 5.92-2.08 6-5.09 6-5.06-2.23-5.06-6zm8 0c0-2.57-1.17-4.14-3-4.14s-3 1.57-3 4.14 1.16 4.24 3 4.24 3-1.66 3-4.24z"/>
<path class="cls-4" d="M607.77,220.55l1.2-1.39a4.55,4.55,0,0,0,3,1.31c1.3,0,2-.58,2-1.48s-.74-1.25-1.78-1.69l-1.58-.69a3.31,3.31,0,0,1-2.33-3.06c0-1.83,1.62-3.24,3.87-3.24a5.08,5.08,0,0,1,3.54,1.47l-1,1.3a3.73,3.73,0,0,0-2.5-1c-1.09,0-1.81.51-1.81,1.36s.88,1.23,1.83,1.62l1.57.65a3.22,3.22,0,0,1,2.32,3.11c0,1.87-1.55,3.41-4.14,3.41A5.94,5.94,0,0,1,607.77,220.55Z"/>
<path class="cls-4" d="m619.34 217v-6.45h2v6.61c0 2.5 0.93 3.33 2.32 3.33s2.39-0.83 2.39-3.33v-6.61h2v6.45c0 3.79-1.67 5.26-4.35 5.26s-4.36-1.49-4.36-5.26z"/>
<path class="cls-4" d="M632.22,210.53h2v9.78h4.79V222h-6.83Z"/>
<path class="cls-4" d="M643.41,212.25h-3.33v-1.72h8.69v1.72h-3.32V222h-2Z"/>
<path class="cls-4" d="M651.22,220.55l1.19-1.39a4.57,4.57,0,0,0,3,1.31c1.31,0,2-.58,2-1.48s-.74-1.25-1.78-1.69l-1.58-.69a3.3,3.3,0,0,1-2.32-3.06c0-1.83,1.61-3.24,3.87-3.24a5.06,5.06,0,0,1,3.53,1.47l-1,1.3a3.75,3.75,0,0,0-2.5-1c-1.09,0-1.81.51-1.81,1.36s.88,1.23,1.83,1.62l1.56.65a3.21,3.21,0,0,1,2.32,3.11c0,1.87-1.54,3.41-4.13,3.41A5.92,5.92,0,0,1,651.22,220.55Z"/>
<path class="cls-4" d="M668.49,218.92h-3.87l-.9,3.11h-2.08l3.75-11.5h2.39l3.75,11.5h-2.15Zm-.46-1.6-.41-1.41c-.37-1.21-.7-2.53-1-3.8h-.07c-.31,1.28-.65,2.59-1,3.8l-.4,1.41Zm-1.73-7.39-.89-1,2.76-2.38,1.09,1.34Z"/>
<path class="cls-4" d="m673.5 216.31c0-3.76 2.38-6 5.44-6a4.74 4.74 0 0 1 3.48 1.47l-1.09 1.31a3.12 3.12 0 0 0-2.32-1c-2 0-3.41 1.59-3.41 4.17s1.21 4.21 3.51 4.21a2.59 2.59 0 0 0 1.66-0.51v-2.48h-2.18v-1.68h4v5.07a5.26 5.26 0 0 1-3.68 1.37c-3.1 0-5.41-2.11-5.41-5.93z"/>
<path class="cls-4" d="m686.54 210.53h2v5.22l4.1-5.22h2.36l-3.53 4.47 4.13 7h-2.25l-3.11-5.42-1.66 2.06v3.36h-2z"/>
<path class="cls-4" d="M698.55,210.53h6.93v1.72h-4.89v2.94h4.13v1.72h-4.13v3.4h5.07V222h-7.11Z"/>
<path class="cls-4" d="M708.67,220.8l5.56-8.55h-5.05v-1.72h7.59v1.23l-5.58,8.55h5.61V222h-8.13Z"/>
<path class="cls-4" d="M720.16,210.53h6.94v1.72h-4.89v2.94h4.13v1.72h-4.13v3.4h5.06V222h-7.11Z"/>
<path class="cls-4" d="M730.86,210.53h2v9.78h4.79V222h-6.83Z"/>
<path class="cls-4" d="M740.91,210.53h6.93v1.72H743v2.94h4.13v1.72H743v3.4H748V222h-7.1Zm2.42-1.62,2.77-2.38,1.09,1.34-3,2.06Z"/>
<path class="cls-4" d="M751,220.55l1.2-1.39a4.57,4.57,0,0,0,3,1.31c1.3,0,2-.58,2-1.48s-.74-1.25-1.78-1.69l-1.58-.69a3.31,3.31,0,0,1-2.33-3.06c0-1.83,1.62-3.24,3.87-3.24a5.08,5.08,0,0,1,3.54,1.47l-1,1.3a3.73,3.73,0,0,0-2.5-1c-1.09,0-1.81.51-1.81,1.36s.88,1.23,1.83,1.62l1.57.65a3.22,3.22,0,0,1,2.32,3.11c0,1.87-1.55,3.41-4.13,3.41A6,6,0,0,1,751,220.55Z"/>
<path class="cls-6" d="m543.05 243.22a2.47 2.47 0 1 1 2.46 2.57 2.48 2.48 0 0 1-2.46-2.57z"/>
<path class="cls-4" d="m559.94 242.78v-6.46h2v6.62c0 2.5 0.93 3.32 2.32 3.32s2.39-0.82 2.39-3.32v-6.62h1.95v6.46c0 3.78-1.67 5.26-4.34 5.26s-4.32-1.48-4.32-5.26zm1.44-8.45a1 1 0 0 1 1-1.05 1 1 0 1 1 0 2.09 1 1 0 0 1-1-1.04zm3.75 0a1 1 0 0 1 1-1.05 1 1 0 0 1 0 2.09 1 1 0 0 1-1-1.04z"/>
<path class="cls-4" d="m571.68 246.6 5.56-8.55h-5v-1.73h7.58v1.23l-5.58 8.55h5.62v1.73h-8.13z"/>
<path class="cls-4" d="M583.17,236.32h6.93v1.73h-4.89V241h4.13v1.72h-4.13v3.39h5.07v1.73h-7.11Z"/>
<path class="cls-4" d="M593.87,236.32H596l3.59,6.48,1.18,2.44h.07c-.09-1.18-.26-2.64-.26-3.92v-5h2v11.51h-2.1l-3.58-6.48-1.18-2.44h-.07c.08,1.21.26,2.6.26,3.89v5h-2Z"/>
<path class="cls-4" d="M606.72,236.32h6.93v1.73h-4.89V241h4.14v1.72h-4.14v3.39h5.07v1.73h-7.11Z"/>
<path class="cls-4" d="M620,238.05h-3.33v-1.73h8.7v1.73H622v9.78h-2Z"/>
<path class="cls-4" d="M628.5,236.32h6.93v1.73h-4.89V241h4.14v1.72h-4.14v3.39h5.07v1.73H628.5Z"/>
<path class="cls-4" d="M639.2,236.32h2v5.23h.06l4.1-5.23h2.27l-3.54,4.49,4.13,7H646l-3.11-5.42-1.66,2.06v3.36h-2Z"/>
<path class="cls-4" d="M658.36,238.05H655v-1.73h8.69v1.73H660.4v9.78h-2Z"/>
<path class="cls-4" d="M671.45,244.71h-3.87l-.9,3.12H664.6l3.75-11.51h2.39l3.75,11.51h-2.15Zm-.46-1.6-.41-1.4c-.37-1.22-.7-2.54-1-3.8h-.07c-.32,1.28-.65,2.58-1,3.8l-.41,1.4Zm-1.73-7.39-.89-1,2.76-2.37,1.09,1.34Z"/>
<path class="cls-4" d="M683.7,247.83l-2.48-4.5h-1.76v4.5h-2V236.32h3.89c2.39,0,4.22.85,4.22,3.42a3.22,3.22,0,0,1-2.29,3.29l2.75,4.8Zm-4.24-6.12h1.64c1.56,0,2.43-.67,2.43-2s-.87-1.78-2.43-1.78h-1.64Z"/>
<path class="cls-4" d="m688.54 242c0-3.71 2.08-5.91 5.07-5.91s5.08 2.2 5.08 5.91-2.07 6-5.08 6-5.07-2.25-5.07-6zm8 0c0-2.57-1.16-4.13-3-4.13s-3 1.56-3 4.13 1.16 4.24 3 4.24 3.04-1.63 3.04-4.24z"/>
<path class="cls-4" d="m702.36 236.32h2v9.78h4.78v1.73h-6.83z"/>
<path class="cls-4" d="M718.52,244.71h-3.87l-.9,3.12h-2.07l3.74-11.51h2.4l3.74,11.51h-2.14Zm-.46-1.6-.4-1.4c-.37-1.22-.71-2.54-1-3.8h-.07c-.32,1.28-.65,2.58-1,3.8l-.41,1.4Zm-1.72-7.39-.9-1,2.76-2.37,1.09,1.34Z"/>
<path class="cls-4" d="M723.91,246.35,725.1,245a4.56,4.56,0,0,0,3,1.3c1.3,0,2-.58,2-1.47s-.74-1.25-1.78-1.69l-1.58-.69a3.3,3.3,0,0,1-2.32-3.06c0-1.83,1.61-3.24,3.87-3.24a5.07,5.07,0,0,1,3.53,1.46l-1,1.3a3.76,3.76,0,0,0-2.49-1c-1.09,0-1.82.51-1.82,1.35s.88,1.24,1.83,1.62l1.57.65a3.23,3.23,0,0,1,2.32,3.12c0,1.86-1.55,3.41-4.13,3.41A6,6,0,0,1,723.91,246.35Z"/>
<path class="cls-4" d="M741.17,244.71H737.3l-.89,3.12h-2.08l3.75-11.51h2.39l3.75,11.51h-2.15Zm-.45-1.6-.41-1.4c-.37-1.22-.7-2.54-1-3.8h-.07c-.31,1.28-.65,2.58-1,3.8l-.4,1.4Z"/>
<polygon class="cls-6" points="610.39 27.27 598.7 42.79 610.39 58.31 618.25 58.31 606.16 42.79 617.85 27.27"/>
<path class="cls-6" d="M553,42.6V43c2.45.19,4.77,2.73,5.33,5.05h.36V37.55h-.36C557.72,39.87,555.4,42.41,553,42.6Z"/>
<path class="cls-6" d="M563.26,36h.43v-8.7H542.35s1,1.63,1,5.92V58.31h20.3V49.62h-.43c-.67,2.76-2.29,6.94-8,6.94h-5.08V29h5.08C561,29,562.59,33.21,563.26,36Z"/>
<path class="cls-6" d="M589,27.27V41.69H576.3V27.27h-7.89s1.05,1.63,1.05,5.92V58.31h6.84V43.89H589V58.31h6.84V33.19c0-4.29,1-5.92,1-5.92Z"/>
<rect class="cls-3" x="359.17" y="327.87" width="123.14" height="66.48" rx="6.65"/>
<path class="cls-6" d="M389.18,355.07h3.23v4.54h.08l3.07-4.54h3.53L395.45,360l4.35,7.25h-3.52l-2.71-4.7-1.16,1.66v3h-3.23Z"/>
<path class="cls-6" d="M403,355.07h3.23v4.54h.08l3.08-4.54H413L409.31,360l4.36,7.25h-3.53l-2.7-4.7-1.17,1.66v3H403Z"/>
<path class="cls-6" d="M416.19,365.75l1.84-2.22a4.9,4.9,0,0,0,2.85,1.18c1,0,1.39-.32,1.39-.86s-.62-.77-1.65-1.18L419.1,362a3.6,3.6,0,0,1-2.46-3.4c0-2.08,1.87-3.79,4.54-3.79a5.87,5.87,0,0,1,4.05,1.63l-1.61,2a4,4,0,0,0-2.44-.88c-.79,0-1.28.28-1.28.82s.7.79,1.8,1.22l1.49.59a3.35,3.35,0,0,1,2.38,3.34c0,2.06-1.73,3.9-4.77,3.9A7,7,0,0,1,416.19,365.75Z"/>
<path class="cls-6" d="M428.68,365.31l5-7.54h-4.5v-2.7h8.48V357l-5,7.54h5v2.71h-9Z"/>
<path class="cls-6" d="M441.64,355.07H446c2.55,0,4.62.63,4.62,3a2.88,2.88,0,0,1-1.54,2.62v.08a2.78,2.78,0,0,1,2.1,2.85c0,2.52-2.18,3.61-4.8,3.61h-4.77Zm4.32,4.76c1.05,0,1.54-.48,1.54-1.24s-.49-1-1.54-1h-1.09v2.29Zm.22,5c1.28,0,1.88-.45,1.88-1.35s-.6-1.24-1.88-1.24h-1.31v2.59Z"/>
<line class="cls-8" x1="508.42" x2="484.87" y1="361.11" y2="361.11"/>
<polygon class="cls-9" points="503.75 357.13 507.72 361.11 503.75 365.09 507.12 365.09 511.1 361.11 507.12 357.13"/>
<polygon class="cls-9" points="489.54 357.13 485.56 361.11 489.54 365.09 486.17 365.09 482.19 361.11 486.17 357.13"/>
<rect class="cls-3" x="199.62" y="391.62" width="96.81" height="26.18" rx="6.65"/>
<path class="cls-6" d="m226.83 399.46h5.54v1.38h-3.91v2.35h3.31v1.38h-3.31v2.72h4v1.38h-5.68z"/>
<path class="cls-6" d="m234.73 404.09c0-3 1.9-4.8 4.34-4.8a3.81 3.81 0 0 1 2.79 1.17l-0.87 1.06a2.5 2.5 0 0 0-1.86-0.8c-1.63 0-2.73 1.26-2.73 3.33s1 3.36 2.81 3.36a2.05 2.05 0 0 0 1.33-0.41v-2h-1.75v-1.34h3.21v4.06a4.21 4.21 0 0 1-2.94 1.09c-2.49 0.02-4.33-1.66-4.33-4.72z"/>
<path class="cls-6" d="M246.71,405.25,244,399.46h1.75l1,2.35c.26.69.52,1.33.81,2h.06c.29-.7.57-1.34.84-2l1-2.35h1.7l-2.77,5.79v3.42h-1.63Z"/>
<path class="cls-6" d="M253.46,399.46H259v1.38h-3.91v2.35h3.31v1.38h-3.31v2.72h4v1.38h-5.68Zm1.94-1.29,2.21-1.9.87,1.07L256.12,399Z"/>
<path class="cls-6" d="M262,399.46H265c1.9,0,3.3.58,3.3,2.27a2.08,2.08,0,0,1-1.28,2v0a2.11,2.11,0,0,1,1.76,2.18c0,1.85-1.51,2.71-3.54,2.71H262Zm2.8,3.8c1.28,0,1.83-.5,1.83-1.29s-.6-1.24-1.8-1.24h-1.19v2.53Zm.21,4.14c1.36,0,2.12-.49,2.12-1.52s-.74-1.39-2.12-1.39h-1.37v2.91Z"/>
<rect class="cls-3" x="199.62" y="361.13" width="96.81" height="26.18" rx="6.65"/>
<path class="cls-6" d="M234.09,373.54c0-3,1.66-4.73,4.06-4.73s4.06,1.76,4.06,4.73-1.66,4.81-4.06,4.81S234.09,376.52,234.09,373.54Zm6.43,0c0-2.06-.93-3.31-2.37-3.31s-2.38,1.25-2.38,3.31.93,3.39,2.38,3.39S240.52,375.6,240.52,373.54Zm-4.71-6.15a.84.84,0,1,1,.83.83A.8.8,0,0,1,235.81,367.39Zm3,0a.84.84,0,1,1,1.67,0,.8.8,0,0,1-.83.83A.81.81,0,0,1,238.81,367.39Z"/>
<path class="cls-6" d="M245.17,369h1.67l2.87,5.18.94,1.95h.06c-.07-.94-.21-2.11-.21-3.14v-4h1.56v9.2h-1.67L247.52,373l-1-1.95h0c.07,1,.21,2.08.21,3.11v4h-1.56Z"/>
<path class="cls-6" d="M257.18,374.76,254.42,369h1.75l1,2.35c.26.69.52,1.32.81,2H258c.29-.7.57-1.33.84-2l1-2.35h1.7l-2.77,5.78v3.42h-1.63Z"/>
<rect class="cls-3" x="199.62" y="330.64" width="96.81" height="26.18" rx="6.65"/>
<path class="cls-6" d="m222.87 338.49h1.63v7.82h3.83v1.38h-5.46z"/>
<path class="cls-6" d="M235.8,345.2h-3.09l-.72,2.49h-1.66l3-9.2h1.91l3,9.2h-1.72Zm-.36-1.28-.33-1.12c-.29-1-.56-2-.83-3h-.05c-.26,1-.52,2.06-.82,3l-.32,1.12Z"/>
<path class="cls-6" d="m240.6 338.49h1.63v4.18l3.28-4.18h1.81l-2.82 3.59 3.3 5.61h-1.8l-2.49-4.33-1.28 1.64v2.69h-1.63z"/>
<path class="cls-6" d="m249.29 343.12c0-3 1.89-4.8 4.21-4.8a3.67 3.67 0 0 1 2.66 1.17l-0.88 1.05a2.42 2.42 0 0 0-1.74-0.8c-1.51 0-2.58 1.27-2.58 3.34s1 3.36 2.54 3.36a2.64 2.64 0 0 0 2-0.94l0.87 1a3.72 3.72 0 0 1-2.9 1.34c-2.35 0.02-4.18-1.67-4.18-4.72z"/>
<path class="cls-6" d="M258.8,337.2l2.21-1.9.87,1.07L259.51,338Zm.1,1.29h1.63v9.2H258.9Z"/>
<path class="cls-6" d="M263.92,338.49h1.84l1.63,4.5c.2.58.4,1.2.59,1.8H268c.2-.6.38-1.22.58-1.8l1.59-4.5h1.85v9.2h-1.5v-4.21c0-.85.12-2.08.21-2.92h-.06L270,342.7l-1.51,4.13h-1L266,342.7l-.73-2.14h-.06c.07.84.21,2.07.21,2.92v4.21h-1.47Z"/>
<rect class="cls-3" x="199.62" y="300.15" width="96.81" height="26.18" rx="6.65"/>
<path class="cls-6" d="m234.53 308h1.63v4.18l3.28-4.18h1.81l-2.82 3.59 3.3 5.61h-1.73l-2.49-4.33-1.32 1.65v2.68h-1.63z"/>
<path class="cls-6" d="M249,314.71h-3.09l-.72,2.49h-1.66l3-9.2h1.91l3,9.2h-1.72Zm-.36-1.28-.33-1.12c-.29-1-.56-2-.83-3h0c-.26,1-.52,2.07-.82,3l-.32,1.12Z"/>
<path class="cls-6" d="M253.48,313.17V308h1.63v5.29c0,2,.75,2.66,1.86,2.66s1.91-.66,1.91-2.66V308h1.56v5.17c0,3-1.33,4.2-3.47,4.2S253.48,316.19,253.48,313.17Zm1.15-6.76a.8.8,0,0,1,.83-.84.84.84,0,1,1,0,1.67A.8.8,0,0,1,254.63,306.41Zm3,0a.81.81,0,0,1,.84-.84.84.84,0,0,1,0,1.67A.81.81,0,0,1,257.63,306.41Z"/>
<line class="cls-8" x1="299.11" x2="330.83" y1="343.73" y2="343.73"/>
<polygon class="cls-9" points="303.78 347.71 299.81 343.73 303.78 339.76 300.41 339.76 296.43 343.73 300.41 347.71"/>
<line class="cls-8" x1="330.83" x2="356.49" y1="358.98" y2="358.98"/>
<polygon class="cls-9" points="351.82 362.95 355.8 358.98 351.82 355 355.19 355 359.17 358.98 355.19 362.95"/>
<line class="cls-8" x1="299.11" x2="330.83" y1="374.22" y2="374.22"/>
<polygon class="cls-9" points="303.78 378.2 299.81 374.22 303.78 370.25 300.41 370.25 296.43 374.22 300.41 378.2"/>
<line class="cls-8" x1="508.42" x2="484.87" y1="152.31" y2="152.31"/>
<polygon class="cls-9" points="503.75 148.34 507.72 152.31 503.75 156.29 507.12 156.29 511.1 152.31 507.12 148.34"/>
<polygon class="cls-9" points="489.54 148.34 485.56 152.31 489.54 156.29 486.17 156.29 482.19 152.31 486.17 148.34"/>
<path class="cls-8" d="m299.11 313.25h25.07a6.66 6.66 0 0 1 6.65 6.64v78.17a6.67 6.67 0 0 1-6.65 6.65h-25.07"/>
<polygon class="cls-9" points="303.78 317.22 299.81 313.25 303.78 309.27 300.41 309.27 296.43 313.25 300.41 317.22"/>
<polygon class="cls-9" points="303.78 400.74 299.81 404.71 303.78 408.69 300.41 408.69 296.43 404.71 300.41 400.74"/>
<path class="cls-4" d="M646.64,346.46H652v1.33h-3.76v2.26h3.17v1.32h-3.17V354h3.89v1.33h-5.46Z"/>
<path class="cls-4" d="M654.61,346.46h1.57V354h3.67v1.33h-5.24Z"/>
<path class="cls-4" d="M662.08,346.46h5.32v1.33h-3.76v2.26h3.18v1.32h-3.18V354h3.9v1.33h-5.46Z"/>
<path class="cls-4" d="m670 346.46h1.57v4l3.15-4h1.75l-2.72 3.45 3.18 5.4h-1.73l-2.4-4.17-1.27 1.58v2.59h-1.53z"/>
<path class="cls-4" d="M681,347.79H678.4v-1.33h6.68v1.33h-2.56v7.52H681Z"/>
<path class="cls-4" d="M692.09,355.31l-1.91-3.46h-1.35v3.46h-1.57v-8.85h3c1.84,0,3.24.65,3.24,2.63a2.48,2.48,0,0,1-1.75,2.53l2.11,3.69Zm-3.26-4.71h1.26c1.2,0,1.86-.51,1.86-1.51s-.66-1.37-1.86-1.37h-1.26Z"/>
<path class="cls-4" d="m695.55 350.85c0-2.86 1.6-4.55 3.9-4.55s3.91 1.69 3.91 4.55-1.6 4.62-3.91 4.62-3.9-1.76-3.9-4.62zm6.18 0c0-2-0.89-3.18-2.28-3.18s-2.29 1.2-2.29 3.18 0.9 3.25 2.29 3.25 2.28-1.27 2.28-3.25z"/>
<path class="cls-4" d="M705.92,346.46h1.61l2.76,5,.91,1.88h0c-.07-.91-.2-2-.2-3v-3.84h1.5v8.85h-1.61l-2.76-5-.9-1.88h-.06c.07.94.2,2,.2,3v3.87h-1.5Z"/>
<path class="cls-4" d="m715.54 346.46h1.57v8.85h-1.57z"/>
<path class="cls-4" d="m720.09 346.46h1.57v4l3.15-4h1.74l-2.72 3.45 3.18 5.4h-1.73l-2.39-4.17-1.27 1.58v2.59h-1.57z"/>
<path class="cls-4" d="m728.81 351.43v-5h1.56v5.09c0 1.92 0.72 2.55 1.79 2.55s1.84-0.63 1.84-2.55v-5.09h1.5v5c0 2.9-1.29 4-3.34 4s-3.35-1.1-3.35-4z"/>
<path class="cls-4" d="M737.68,354.17l.92-1.07a3.49,3.49,0,0,0,2.3,1c1,0,1.54-.44,1.54-1.13s-.57-1-1.37-1.3l-1.21-.53a2.54,2.54,0,0,1-1.79-2.35c0-1.41,1.25-2.49,3-2.49a3.94,3.94,0,0,1,2.71,1.12l-.79,1a2.87,2.87,0,0,0-1.92-.76c-.84,0-1.4.39-1.4,1s.68,1,1.41,1.24l1.2.5a2.49,2.49,0,0,1,1.79,2.4c0,1.43-1.19,2.62-3.18,2.62A4.56,4.56,0,0,1,737.68,354.17Z"/>
<path class="cls-4" d="M650.75,367h-3l-.69,2.4h-1.6l2.88-8.84h1.84l2.88,8.84h-1.65Zm-.35-1.23-.31-1.08c-.29-.93-.54-1.94-.8-2.92h0c-.25,1-.5,2-.79,2.92l-.31,1.08Z"/>
<path class="cls-4" d="M655.09,360.54h2.36c2.71,0,4.3,1.46,4.3,4.38s-1.59,4.46-4.22,4.46h-2.44Zm2.25,7.57c1.79,0,2.8-1,2.8-3.19s-1-3.11-2.8-3.11h-.68v6.3Z"/>
<path class="cls-4" d="M668.27,367h-3l-.68,2.4H663l2.88-8.84h1.84l2.88,8.84H669Zm-.35-1.23-.31-1.08c-.29-.93-.54-1.94-.8-2.92h-.06c-.24,1-.5,2-.78,2.92l-.31,1.08Z"/>
<path class="cls-4" d="M673.59,361.86H671v-1.32h6.67v1.32h-2.55v7.52h-1.57Z"/>
<path class="cls-4" d="M679.34,368.24l.92-1.07a3.51,3.51,0,0,0,2.3,1c1,0,1.54-.44,1.54-1.13s-.57-1-1.37-1.3l-1.21-.53a2.54,2.54,0,0,1-1.79-2.35,2.7,2.7,0,0,1,3-2.49,3.89,3.89,0,0,1,2.71,1.13l-.79,1a2.87,2.87,0,0,0-1.92-.76c-.84,0-1.4.39-1.4,1s.68,1,1.41,1.24l1.2.5a2.49,2.49,0,0,1,1.79,2.4c0,1.43-1.19,2.62-3.18,2.62A4.56,4.56,0,0,1,679.34,368.24Z"/>
<path class="cls-4" d="M687.5,368.43l4.28-6.57H687.9v-1.32h5.82v.94l-4.28,6.57h4.31v1.33H687.5Z"/>
<path class="cls-4" d="m695.39 364.92c0-2.86 1.6-4.55 3.9-4.55s3.9 1.69 3.9 4.55-1.59 4.62-3.9 4.62-3.9-1.76-3.9-4.62zm6.18 0c0-2-0.89-3.18-2.28-3.18s-2.29 1.2-2.29 3.18 0.89 3.25 2.29 3.25 2.28-1.27 2.28-3.25z"/>
<path class="cls-4" d="M705.76,360.54h1.57v7.51H711v1.33h-5.25Z"/>
<path class="cls-4" d="m712.59 365c0-2.89 1.83-4.61 4.18-4.61a3.65 3.65 0 0 1 2.68 1.13l-0.84 1a2.41 2.41 0 0 0-1.78-0.77c-1.57 0-2.63 1.22-2.63 3.2s0.94 3.23 2.71 3.23a2 2 0 0 0 1.27-0.39v-1.9h-1.68v-1.29h3.08v3.9a4.05 4.05 0 0 1-2.82 1.05c-2.39-0.01-4.17-1.63-4.17-4.55z"/>
<path class="cls-4" d="M726.6,367h-3l-.69,2.4h-1.59l2.88-8.84h1.84l2.88,8.84h-1.65Zm-.35-1.23-.32-1.08c-.28-.93-.54-1.94-.79-2.92h-.06c-.24,1-.5,2-.78,2.92l-.31,1.08Zm-1.33-5.67-.69-.79,2.12-1.82.84,1Z"/>
<path class="cls-4" d="m730.93 360.54h1.57v7.51h3.68v1.33h-5.25z"/>
<path class="cls-4" d="m739.28 361.86h-2.55v-1.32h6.68v1.32h-2.56v7.52h-1.57z"/>
<path class="cls-4" d="M749.09,367h-3l-.69,2.4h-1.6l2.88-8.84h1.84l2.88,8.84h-1.65Zm-.35-1.23-.31-1.08c-.28-.93-.54-1.94-.8-2.92h0c-.24,1-.5,2-.78,2.92l-.31,1.08Z"/>
<path class="cls-4" d="M754.42,361.86h-2.56v-1.32h6.68v1.32H756v7.52h-1.56Z"/>
<path class="cls-4" d="M764.23,367h-3l-.69,2.4H759l2.88-8.84h1.84l2.87,8.84h-1.64Zm-.35-1.23-.32-1.08c-.28-.93-.54-1.94-.79-2.92h-.06c-.24,1-.5,2-.78,2.92l-.31,1.08Zm-1.33-5.67-.69-.79,2.12-1.82.84,1Z"/>
<path class="cls-4" d="M768.11,368.24l.92-1.07a3.51,3.51,0,0,0,2.3,1c1,0,1.54-.44,1.54-1.13s-.57-1-1.37-1.3l-1.21-.53a2.54,2.54,0,0,1-1.79-2.35,2.7,2.7,0,0,1,3-2.49,3.9,3.9,0,0,1,2.71,1.13l-.79,1a2.87,2.87,0,0,0-1.92-.76c-.84,0-1.4.39-1.4,1s.68,1,1.41,1.24l1.2.5a2.49,2.49,0,0,1,1.79,2.4c0,1.43-1.19,2.62-3.18,2.62A4.56,4.56,0,0,1,768.11,368.24Z"/>
<path class="cls-4" d="m776.88 360.54h1.57v8.84h-1.57z"/>
<path class="cls-4" d="M785,360.54h2.79c2,0,3.42.67,3.42,2.73s-1.46,2.86-3.37,2.86h-1.27v3.25H785Zm2.72,4.34c1.31,0,1.95-.53,1.95-1.61s-.69-1.48-2-1.48h-1.1v3.09Z"/>
<path class="cls-4" d="m793.5 360.54h1.57v7.51h3.68v1.33h-5.25z"/>
<path class="cls-4" d="M805.66,367h-3l-.69,2.4H800.4l2.88-8.84h1.84l2.88,8.84h-1.65Zm-.35-1.23-.31-1.08c-.29-.93-.55-1.94-.8-2.92h-.06c-.24,1-.5,2-.78,2.92l-.31,1.08Z"/>
<path class="cls-4" d="M811,361.86h-2.56v-1.32h6.68v1.32h-2.55v7.52H811Z"/>
<path class="cls-4" d="m817.29 360.54h5.34v1.32h-3.77v2.5h3.22v1.33h-3.22v3.69h-1.57z"/>
<path class="cls-4" d="m824.35 364.92c0-2.86 1.59-4.55 3.89-4.55s3.91 1.69 3.91 4.55-1.6 4.62-3.91 4.62-3.89-1.76-3.89-4.62zm6.18 0c0-2-0.9-3.18-2.29-3.18s-2.28 1.2-2.28 3.18 0.89 3.25 2.28 3.25 2.29-1.27 2.29-3.25z"/>
<path class="cls-4" d="M839.54,369.38l-1.9-3.46h-1.35v3.46h-1.57v-8.84h3c1.83,0,3.24.64,3.24,2.62a2.48,2.48,0,0,1-1.76,2.53l2.11,3.69Zm-3.25-4.71h1.25c1.21,0,1.87-.51,1.87-1.51s-.66-1.37-1.87-1.37h-1.25Z"/>
<path class="cls-4" d="M843.53,360.54h1.77l1.57,4.32c.19.56.38,1.15.57,1.73h0c.19-.58.37-1.17.56-1.73l1.52-4.32h1.79v8.84h-1.45v-4.05c0-.82.12-2,.2-2.81h-.05l-.72,2.06-1.44,4H847l-1.46-4-.7-2.06h0c.06.81.2,2,.2,2.81v4.05h-1.42Z"/>
<path class="cls-4" d="m572.07 359.66h-16.07a4.8 4.8 0 0 0 1.39 3.29 4.22 4.22 0 0 0 3 1.14 3.74 3.74 0 0 0 3.69-2.24h7.54a10.46 10.46 0 0 1-5.89 7 12.19 12.19 0 0 1-5.09 1 12.36 12.36 0 0 1-6-1.45 10.31 10.31 0 0 1-4.14-4.14 14.06 14.06 0 0 1 0-12.6 10.2 10.2 0 0 1 4.12-4.14 13.41 13.41 0 0 1 12 0 10.12 10.12 0 0 1 4.08 4 12.2 12.2 0 0 1 1.47 6.09 18.76 18.76 0 0 1-0.1 2.05zm-7.13-3.94a3.65 3.65 0 0 0-1.24-2.9 4.56 4.56 0 0 0-3.11-1.08 4.51 4.51 0 0 0-3 1 4.6 4.6 0 0 0-1.51 2.94z"/>
<path class="cls-4" d="m576.83 351.66a10.14 10.14 0 0 1 3.66-4.14 9.57 9.57 0 0 1 5.18-1.45 8.94 8.94 0 0 1 4.29 1 7.41 7.41 0 0 1 2.84 2.61v-3.28h7.08v23.12h-7.08v-3.28a7.6 7.6 0 0 1-2.88 2.61 8.83 8.83 0 0 1-4.29 1 9.42 9.42 0 0 1-5.14-1.47 10.22 10.22 0 0 1-3.66-4.19 15.21 15.21 0 0 1 0-12.53zm14.5 2.11a4.79 4.79 0 0 0-3.59-1.53 4.84 4.84 0 0 0-3.58 1.51 5.74 5.74 0 0 0-1.47 4.17 5.84 5.84 0 0 0 1.47 4.2 4.92 4.92 0 0 0 7.17 0 6.69 6.69 0 0 0 0-8.37z"/>
<path class="cls-4" d="m615 347.06a8.83 8.83 0 0 1 4.27-1 9.57 9.57 0 0 1 5.18 1.45 10.07 10.07 0 0 1 3.66 4.14 15.21 15.21 0 0 1 0 12.53 10.15 10.15 0 0 1-3.66 4.19 9.5 9.5 0 0 1-5.18 1.47 8.75 8.75 0 0 1-4.25-1 7.73 7.73 0 0 1-2.88-2.56v11h-7.14v-30.88h7.08v3.27a7.85 7.85 0 0 1 2.92-2.61zm5.78 6.69a4.88 4.88 0 0 0-3.62-1.51 4.79 4.79 0 0 0-3.59 1.53 6.69 6.69 0 0 0 0 8.37 4.94 4.94 0 0 0 7.19 0 5.81 5.81 0 0 0 1.49-4.2 5.74 5.74 0 0 0-1.51-4.19z"/>
</g>
</g>
</svg>
